<svg width="104" height="30" viewBox="0 0 104 30" fill="none" xmlns="http://www.w3.org/2000/svg">
<path d="M14.1834 0.248688C22.0821 0.248688 27.4776 5.99943 27.4776 14.2378C27.4776 15.258 27.3172 16.3834 27.2089 17.4611C27.2062 17.4869 27.1939 17.5107 27.1745 17.5281C27.1551 17.5454 27.13 17.5551 27.1039 17.5551H6.6551C6.63822 17.5551 6.62159 17.5591 6.60657 17.5668C6.59155 17.5745 6.57858 17.5856 6.56871 17.5992C6.55885 17.6128 6.55238 17.6286 6.54983 17.6451C6.54729 17.6617 6.54874 17.6787 6.55407 17.6946C7.70548 21.0422 10.7909 23.0851 14.8513 23.0851C17.4813 23.0851 20.0038 22.1724 21.674 20.4006C21.6838 20.3904 21.6955 20.3824 21.7086 20.3769C21.7216 20.3713 21.7356 20.3685 21.7498 20.3685C21.7639 20.3685 21.7779 20.3713 21.7909 20.3769C21.804 20.3824 21.8157 20.3904 21.8255 20.4006L25.8483 24.3986C25.8671 24.4184 25.8776 24.4447 25.8776 24.4719C25.8776 24.4992 25.8671 24.5255 25.8483 24.5453C23.1806 27.4282 19.3142 29.004 14.792 29.004C6.39611 29 0 22.7527 0 14.6243C0 6.49599 6.11868 0.248688 14.1834 0.248688ZM6.5204 12.4683H21.1801C21.1953 12.4682 21.2104 12.4649 21.2242 12.4586C21.2381 12.4522 21.2504 12.443 21.2603 12.4315C21.2703 12.42 21.2776 12.4066 21.2819 12.392C21.2862 12.3775 21.2873 12.3622 21.2851 12.3472C20.6861 8.49261 17.7571 6.10942 14.0687 6.10942C10.2721 6.10942 7.01993 8.59862 6.41215 12.3464C6.4098 12.3617 6.41086 12.3774 6.41526 12.3922C6.41966 12.4071 6.42729 12.4209 6.43761 12.4325C6.44793 12.4441 6.46069 12.4534 6.475 12.4595C6.4893 12.4657 6.5048 12.4687 6.5204 12.4683Z" fill="#FF5A5F"/>
<path d="M52.6644 0.960436V5.55625C52.6644 5.59248 52.6519 5.62762 52.6291 5.65588L39.3566 22.1071C39.338 22.1305 39.3263 22.1587 39.323 22.1884C39.3197 22.2181 39.3249 22.2481 39.3379 22.2751C39.351 22.302 39.3714 22.3247 39.3968 22.3407C39.4222 22.3566 39.4516 22.3652 39.4817 22.3653H53.3387C53.3812 22.3653 53.422 22.3821 53.4521 22.412C53.4822 22.4419 53.4991 22.4824 53.4991 22.5247V28.289C53.4991 28.3313 53.4822 28.3718 53.4521 28.4017C53.422 28.4316 53.3812 28.4484 53.3387 28.4484H30.5197C30.4772 28.4484 30.4364 28.4316 30.4063 28.4017C30.3763 28.3718 30.3594 28.3313 30.3594 28.289V23.6374C30.3594 23.6012 30.3718 23.566 30.3947 23.5378L43.6118 7.14238C43.6305 7.11894 43.6421 7.09075 43.6454 7.06105C43.6487 7.03135 43.6436 7.00132 43.6305 6.97439C43.6175 6.94747 43.5971 6.92473 43.5717 6.90877C43.5462 6.89281 43.5168 6.88428 43.4868 6.88414H31.1909C31.1483 6.88414 31.1075 6.86734 31.0775 6.83745C31.0474 6.80755 31.0305 6.76701 31.0305 6.72473V0.960436C31.0305 0.918158 31.0474 0.877611 31.0775 0.847716C31.1075 0.81782 31.1483 0.801025 31.1909 0.801025H52.504C52.5466 0.801025 52.5873 0.81782 52.6174 0.847716C52.6475 0.877611 52.6644 0.918158 52.6644 0.960436Z" fill="#FF5A5F"/>
<path d="M56.3806 13.8289C56.5979 4.59183 61.5435 0 71.1622 0H72.0947C72.1078 -4.24203e-07 72.1208 0.00258218 72.1329 0.00759885C72.145 0.0126155 72.156 0.019967 72.1653 0.0292292C72.1745 0.0384915 72.1818 0.0494812 72.1868 0.0615645C72.1917 0.0736478 72.1942 0.0865856 72.1941 0.0996317V7.35282C72.1942 7.36587 72.1917 7.3788 72.1868 7.39089C72.1818 7.40297 72.1745 7.41396 72.1653 7.42322C72.156 7.43248 72.145 7.43984 72.1329 7.44485C72.1208 7.44987 72.1078 7.45245 72.0947 7.45245H69.7494C65.7274 7.45245 63.7173 9.55906 63.7173 13.7189V28.4771C63.7173 28.4902 63.7147 28.5031 63.7096 28.5151C63.7046 28.5272 63.6972 28.5381 63.6879 28.5473C63.6785 28.5565 63.6675 28.5638 63.6553 28.5687C63.6432 28.5736 63.6302 28.5761 63.617 28.576H56.4808C56.4677 28.5761 56.4547 28.5736 56.4425 28.5687C56.4304 28.5638 56.4193 28.5565 56.41 28.5473C56.4007 28.5381 56.3933 28.5272 56.3883 28.5151C56.3832 28.5031 56.3806 28.4902 56.3806 28.4771V13.8289Z" fill="#FF5A5F"/>
<path d="M88.8714 0.248688C92.3192 0.248688 95.4968 2.01496 97.3466 4.12556C97.3534 4.13361 97.3626 4.13938 97.3728 4.14207C97.383 4.14475 97.3939 4.14423 97.4038 4.14056C97.4137 4.1369 97.4222 4.13027 97.4282 4.12159C97.4342 4.11291 97.4373 4.1026 97.4372 4.09208V0.852854C97.4372 0.846155 97.4385 0.839522 97.4411 0.833333C97.4437 0.827144 97.4475 0.821521 97.4522 0.816784C97.457 0.812047 97.4627 0.80829 97.4689 0.805726C97.4751 0.803162 97.4818 0.801843 97.4885 0.801843H103.949C103.962 0.801843 103.975 0.807217 103.985 0.816784C103.995 0.82635 104 0.839325 104 0.852854V28.3958C104 28.4026 103.999 28.4093 103.996 28.4156C103.994 28.4219 103.99 28.4276 103.985 28.4324C103.981 28.4372 103.975 28.4411 103.969 28.4437C103.962 28.4463 103.956 28.4476 103.949 28.4476H97.4885C97.4748 28.4474 97.4618 28.4419 97.4522 28.4322C97.4426 28.4225 97.4372 28.4094 97.4372 28.3958V25.0522C97.4374 25.0416 97.4342 25.0311 97.4281 25.0224C97.422 25.0136 97.4134 25.007 97.4033 25.0034C97.3932 24.9997 97.3822 24.9994 97.3719 25.0023C97.3616 25.0052 97.3525 25.0112 97.3458 25.0195C95.496 27.2345 92.3184 29 88.8714 29C80.9173 29 75.0801 22.5311 75.0801 14.6243C75.0801 6.71758 80.9173 0.248688 88.8714 0.248688ZM81.6406 14.6243C81.6406 18.9372 85.2006 22.4761 89.5385 22.4761C93.8763 22.4761 97.4372 18.9372 97.4372 14.6243C97.4372 10.3115 93.8771 6.77496 89.5385 6.77496C85.1998 6.77496 81.6406 10.3115 81.6406 14.6243Z" fill="#FF5A5F"/>
</svg>
