<svg width="24" height="25" viewBox="0 0 24 25" fill="none" xmlns="http://www.w3.org/2000/svg">
<g clip-path="url(#clip0_486_76120)">
<rect width="24" height="24" transform="translate(0 0.631836)" fill="white" fill-opacity="0.01"/>
<path d="M0.00292969 6.63306C0.00292969 5.83741 0.319 5.07435 0.881609 4.51174C1.44422 3.94913 2.20728 3.63306 3.00293 3.63306H21.0029C21.7986 3.63306 22.5616 3.94913 23.1242 4.51174C23.6869 5.07435 24.0029 5.83741 24.0029 6.63306V18.6331C24.0029 19.4287 23.6869 20.1918 23.1242 20.7544C22.5616 21.317 21.7986 21.6331 21.0029 21.6331H3.00293C2.20728 21.6331 1.44422 21.317 0.881609 20.7544C0.319 20.1918 0.00292969 19.4287 0.00292969 18.6331V6.63306ZM3.00293 5.13306C2.6051 5.13306 2.22357 5.29109 1.94227 5.5724C1.66096 5.8537 1.50293 6.23523 1.50293 6.63306V8.13306H22.5029V6.63306C22.5029 6.23523 22.3449 5.8537 22.0636 5.5724C21.7823 5.29109 21.4008 5.13306 21.0029 5.13306H3.00293ZM22.5029 11.1331H1.50293V18.6331C1.50293 19.0309 1.66096 19.4124 1.94227 19.6937C2.22357 19.975 2.6051 20.1331 3.00293 20.1331H21.0029C21.4008 20.1331 21.7823 19.975 22.0636 19.6937C22.3449 19.4124 22.5029 19.0309 22.5029 18.6331V11.1331Z" fill="#FF5A5F"/>
<path d="M3.00293 15.6331C3.00293 15.2352 3.16096 14.8537 3.44227 14.5724C3.72357 14.2911 4.1051 14.1331 4.50293 14.1331H6.00293C6.40075 14.1331 6.78228 14.2911 7.06359 14.5724C7.34489 14.8537 7.50293 15.2352 7.50293 15.6331V17.1331C7.50293 17.5309 7.34489 17.9124 7.06359 18.1937C6.78228 18.475 6.40075 18.6331 6.00293 18.6331H4.50293C4.1051 18.6331 3.72357 18.475 3.44227 18.1937C3.16096 17.9124 3.00293 17.5309 3.00293 17.1331V15.6331Z" fill="#FF5A5F"/>
</g>
<defs>
<clipPath id="clip0_486_76120">
<rect width="24" height="24" fill="white" transform="translate(0 0.631836)"/>
</clipPath>
</defs>
</svg>
