<svg width="665" height="1024" viewBox="0 0 665 1024" fill="none" xmlns="http://www.w3.org/2000/svg">
<g clip-path="url(#clip0_353_30426)">
<rect width="665" height="1024" fill="#FFEEEC"/>
<g opacity="0.2" clip-path="url(#clip1_353_30426)">
<path d="M354.229 863.565C409.294 808.552 409.294 719.357 354.229 664.344C299.164 609.331 209.885 609.331 154.819 664.344C99.7541 719.357 99.7541 808.552 154.819 863.565C209.885 918.578 299.164 918.578 354.229 863.565Z" fill="#FF8A86"/>
<path d="M653.833 654.036V658.914H648.324V791.734H600.834V680.997H597.272V679.358H598.259V675.36H592.83V672.055H590.242V660.793H588.908V675.36H587.173V679.358H588.161V681.024H584.292V686.155H580.65V647.199H561.721V791.788H480.614V771.797H477.345V767.052H465.259V771.823H456.228V734.094L449.184 733.054V721.606H447.17V732.747L444.649 732.374V716.995H443.315V713.716H441.687V705.426H435.764V687.061H433.75V705.426H432.216V716.995H430.962V732.574L427.187 734.094V791.788H340.624V788.722H333.5V765.093H323.068V788.722H321.387V782.912H313.116V743.329H309.408V739.331C309.414 739.265 309.414 739.198 309.408 739.131C309.408 737.599 306.647 734.453 303.245 734.453V716.208H301.817V734.64C301.451 734.73 301.093 734.855 300.75 735.013V727.656H299.056V736.079C298.037 736.804 297.335 737.892 297.095 739.118C297.089 739.184 297.089 739.251 297.095 739.318V743.316H293.373V782.912H287.824V788.722H282.981V764.2H284.315V762.508H282.675L278.352 754.311H278.646V752.472H258.663V754.311H258.956L254.647 762.508H252.993V764.2H254.327V788.722H240.12V791.788H0V1045.39H667V654.036H653.833Z" fill="#FF8A86"/>
<path d="M667 574H0V1045.72H667V574Z" fill="url(#paint0_linear_353_30426)"/>
<path d="M662.771 696.15V678.918H657.502V671.028H641.16V678.918H634.65V652.597H602.728V713.196H580.557V698.923H559.546V662.032H551.542V655.235H497.289V662.032H488.324V760.655H479.373V749.993H478.372V676.986L472.876 674.68L470.702 674.907V669.469H466.7L465.913 636.79H464.579L463.792 669.469H459.79V676.053L450.812 676.986V760.655H443.342V777.981H433.55V766.346H425.546V687.354H418.302V671.028H411.179V687.354H404.069V766.332H388.741V777.981H360.46V790.415H87.377L90.1651 789.322V782.659L85.5761 780.766L83.5484 779.433L83.415 776.048L86.083 775.782V774.449L81.5207 773.423L81.1205 770.331L79.8666 769.638L76.6783 766.186L76.3448 760.482L77.1185 759.376L76.038 756.097L75.7979 753.805L77.452 747.141L76.2114 733.814L77.8789 729.242L79.5331 728.136L81.334 726.204L81.8943 722.459L83.8286 719.793L84.669 716.461L84.5889 716.048L85.3493 715.035V710.078L80.3068 705.36L77.7722 708.318L75.411 706.519L73.37 702.294L71.9159 701.055L71.2223 699.642L68.7944 696.883L68.5142 693.858L68.7944 690.806V688.141L74.7574 687.035L68.034 685.835L71.8626 683.929L67.5804 684.702C67.327 684.516 66.9134 684.236 66.4065 683.916L68.1274 680.691L65.4594 682.61C65.2888 682.729 65.0925 682.807 64.8863 682.837C64.6802 682.867 64.4698 682.849 64.2721 682.783C63.9771 682.667 63.6739 682.574 63.365 682.503C63.1754 682.452 62.9993 682.36 62.8495 682.234C62.6996 682.107 62.5795 681.949 62.4979 681.77L60.7103 678.092L61.0572 681.53C61.0811 681.807 61.0182 682.084 60.8771 682.322C60.736 682.561 60.5238 682.75 60.2701 682.863H60.1767C59.974 682.948 59.7535 682.981 59.5347 682.96C59.3159 682.939 59.1057 682.865 58.9228 682.743L55.8012 680.691L58.696 683.823C58.3552 684.073 58.0341 684.349 57.7355 684.649L57.5221 684.849V685.355L54.2004 685.688C53.0132 682.01 51.8126 678.132 51.6792 677.386C51.4124 675.919 50.9988 670.322 50.9988 670.269L49.0912 665.817L49.2513 665.098L51.7192 663.765L51.5191 661.233L49.3313 660.286V659.22L52.3328 652.557L50.9988 652.85C50.7187 652.85 44.022 654.409 44.5156 658.181L44.8224 660.233L42.1544 660.5V663.685L43.8086 664.924V670.162L44.9158 672.228V677.705L46.2498 679.305L49.0645 690.7C47.8239 693.752 46.5699 697.497 47.4637 698.536C47.8791 699.04 48.2623 699.57 48.611 700.122L49.2513 702.228L50.0917 710.544L51.4257 712.21L48.9445 720.486L50.6653 723.152L50.5453 732.481L51.4924 738.212L50.692 747.594L52.026 757.203L51.2256 765.2L48.9978 768.158L45.3827 768.918V771.97H42.9815V776.648H45.6495V777.981H42.9815V780.273H39.0995V787.31L42.0877 789.336V790.388H0V1045.39H667V696.217L662.771 696.15ZM55.9346 691.273C55.5077 689.94 54.8541 687.927 54.2004 685.862L57.4821 686.288V687.194L54.9475 688.181H57.5087L57.5754 691.966L55.9346 691.273Z" fill="#F75B5F"/>
<path d="M667 788.722H0V1045.39H667V788.722Z" fill="url(#paint1_linear_353_30426)"/>
<path d="M667 813.085L648.924 806.301H627.58V770.49L594.15 760.801H569.951V824.213H556.065V708.265L543.218 704.16L504.692 708.265V870.859H489.244V792.481H477.238V779.953L440.047 770.304V822.374H435.698V810.313H430.362V803.089H425.786V796.332H422.651V792.481H418.302V790.068H383.085V792.481H379.83V658.367L371.546 657.541V648.705H364.182L355.604 598.927V557.066H351.469V595.395L342.905 648.705H334.901V656.888L327.31 658.34V860.21H297.162V814.751H289.158V784.098H284.355V767.572H271.562V773.436H261.958V790.508H251.286V809.7H240.12V860.21H219.87V886.145H186.827V878.909H105.653V886.145H78.1991V850.321H0V1045.39H667V813.085ZM355.658 607.07L357.845 619.798C357.281 619.022 356.528 618.403 355.658 617.998V607.07ZM355.658 628.314C356.387 627.968 357.034 627.472 357.559 626.859C358.083 626.246 358.471 625.529 358.699 624.755L362.835 648.745H355.658V628.314ZM351.522 604.018V617.745C350.576 618.037 349.724 618.576 349.054 619.305L351.522 604.018ZM348.054 625.502C348.383 626.228 348.862 626.877 349.46 627.405C350.058 627.934 350.76 628.33 351.522 628.567V648.705H344.305L348.054 625.502Z" fill="#D53240"/>
<path d="M667 920.117H0V1045.39H667V920.117Z" fill="url(#paint2_linear_353_30426)"/>
<path d="M664.759 845.311V863.076L654.487 888.598H651.259V892.596H646.99V936.83L646.536 936.576H635.864V931.246H625.859V936.576H617.188V926.581H609.184V936.576H603.848V954.568H589.174V967.229H569.831V995.95C536.615 980.73 515.137 952.943 512.563 949.557V942.441L504.252 939.362L501.891 938.496H495.007V940.002H496.061V941.228H496.141L492.966 942.001L490.872 941.228H483.989V942.734H485.229V943.867L480.48 945.026V944.893H473.57V946.412H475.518V949.757C444.089 966.87 410.912 974 378.336 974.719C340.33 969.668 301.644 955.835 268.561 940.815C199.767 909.535 141.471 867.274 128.064 857.385V852.841L112.496 846.976L108.054 845.311H95.0608V848.163H97.0752V850.482H97.2219L91.2189 851.934L87.2169 850.482H74.2238V853.334H76.5716V855.466L67.5804 857.652V857.412H54.5739V860.264H58.2424V866.434C47.7839 869.033 28.3875 873.765 0 879.375V884.906C27.9206 879.402 47.3036 874.724 58.2424 872.019V953.769L0 947.545V957.9L58.2424 964.124V1022.98H51.7192V1029.56H0V1045.35H667V845.311H664.759ZM80.7337 943.333H67.5804V907.03C67.5514 898.155 70.7894 889.579 76.6783 882.934C76.9908 882.577 77.4073 882.328 77.8691 882.22C78.3309 882.113 78.8149 882.153 79.2529 882.334C79.694 882.526 80.0691 882.843 80.3322 883.246C80.5953 883.648 80.7348 884.119 80.7337 884.6V943.333ZM100.103 943.333H86.9501V907.03C86.9211 898.155 90.1591 889.579 96.048 882.934C96.3605 882.577 96.777 882.328 97.2388 882.22C97.7006 882.113 98.1846 882.153 98.6226 882.334C99.0537 882.534 99.4177 882.855 99.6709 883.256C99.9241 883.658 100.056 884.125 100.05 884.6L100.103 943.333ZM128.117 864.049C145.913 877.096 201.487 916.252 266.466 945.759C290.443 956.858 315.312 965.922 340.81 972.854C302.538 968.389 266.467 956.687 236.665 944.053C198.405 927.528 162.017 906.977 128.117 882.747V864.049ZM475.558 1037.49H146.233V1029.6H137.989V1023.02H131.746V972.041L475.558 1008.85V1037.49ZM475.558 998.456L131.746 961.645V954.528L133.307 941.201H128.064V889.344C161.402 912.864 197.091 932.869 234.557 949.038C273.083 965.404 321.988 980.21 372.746 980.21C374.08 980.21 375.414 980.21 376.748 980.21C381.657 980.89 386.46 981.423 391.182 981.783C396.732 982.209 402.152 982.423 407.444 982.423C433.27 982.423 456.041 977.278 475.571 967.096L475.558 998.456ZM475.558 960.899C457.082 971.014 436.391 975.746 414.767 976.585C435.984 972.857 456.493 965.856 475.558 955.835V960.899ZM487.444 990.299H480.493V971.108C480.497 968.447 481.052 965.815 482.121 963.378C483.9 962.285 485.678 961.152 487.457 959.979L487.444 990.299ZM497.675 990.299H490.739V971.108C490.719 966.42 492.429 961.889 495.541 958.38C495.702 958.194 495.917 958.063 496.156 958.005C496.396 957.948 496.647 957.967 496.875 958.06C497.104 958.166 497.299 958.335 497.436 958.548C497.573 958.76 497.647 959.007 497.649 959.26L497.675 990.299ZM569.711 1037.49H514.417V1013.01L569.765 1018.94L569.711 1037.49ZM569.711 1008.54L514.724 1002.65L515.177 999.602H512.443V958.007C520.954 968.069 541.337 989.486 569.711 1001.88V1008.54Z" fill="#A8142A"/>
<path d="M179.116 614.52L179.93 616.786C179.963 616.874 180.014 616.955 180.081 617.021C180.148 617.088 180.228 617.14 180.317 617.172L182.598 617.985C182.721 618.031 182.826 618.112 182.901 618.22C182.976 618.327 183.016 618.454 183.016 618.585C183.016 618.715 182.976 618.843 182.901 618.95C182.826 619.057 182.721 619.139 182.598 619.185L180.317 619.998C180.23 620.032 180.15 620.085 180.084 620.151C180.017 620.218 179.965 620.297 179.93 620.384L179.116 622.663C179.074 622.787 178.994 622.895 178.888 622.971C178.781 623.047 178.654 623.088 178.523 623.088C178.392 623.088 178.264 623.047 178.158 622.971C178.051 622.895 177.971 622.787 177.929 622.663L177.102 620.384C177.069 620.296 177.018 620.215 176.951 620.148C176.884 620.082 176.804 620.03 176.715 619.998L174.447 619.185C174.325 619.139 174.219 619.057 174.144 618.95C174.07 618.843 174.03 618.715 174.03 618.585C174.03 618.454 174.07 618.327 174.144 618.22C174.219 618.112 174.325 618.031 174.447 617.985L176.715 617.172C176.805 617.142 176.887 617.091 176.954 617.024C177.021 616.957 177.072 616.876 177.102 616.786L177.929 614.52C177.971 614.396 178.051 614.289 178.158 614.212C178.264 614.136 178.392 614.095 178.523 614.095C178.654 614.095 178.781 614.136 178.888 614.212C178.994 614.289 179.074 614.396 179.116 614.52Z" fill="#FF8A86"/>
<path d="M296.148 590.064L296.962 592.343C296.993 592.431 297.044 592.511 297.111 592.576C297.178 592.64 297.259 592.689 297.349 592.716L299.616 593.543C299.74 593.585 299.848 593.665 299.924 593.771C300.001 593.877 300.042 594.005 300.042 594.136C300.042 594.267 300.001 594.394 299.924 594.501C299.848 594.607 299.74 594.687 299.616 594.729L297.349 595.555C297.259 595.583 297.178 595.631 297.111 595.696C297.044 595.761 296.993 595.84 296.962 595.928L296.148 598.194C296.102 598.316 296.021 598.422 295.913 598.497C295.806 598.571 295.678 598.611 295.548 598.611C295.417 598.611 295.289 598.571 295.182 598.497C295.075 598.422 294.993 598.316 294.947 598.194L294.134 595.915C294.101 595.828 294.049 595.749 293.982 595.685C293.915 595.62 293.835 595.571 293.747 595.542L291.466 594.716C291.342 594.673 291.234 594.594 291.158 594.487C291.081 594.381 291.04 594.253 291.04 594.122C291.04 593.992 291.081 593.864 291.158 593.758C291.234 593.651 291.342 593.571 291.466 593.529L293.747 592.703C293.835 592.673 293.915 592.625 293.982 592.56C294.049 592.496 294.101 592.417 294.134 592.33L294.947 590.051C294.994 589.929 295.077 589.824 295.185 589.751C295.294 589.678 295.422 589.639 295.552 589.64C295.683 589.642 295.81 589.683 295.917 589.759C296.023 589.835 296.104 589.941 296.148 590.064Z" fill="#FF8A86"/>
<path d="M502.544 599.034L503.371 601.313C503.402 601.399 503.451 601.477 503.516 601.541C503.581 601.606 503.659 601.655 503.745 601.686L506.026 602.512C506.15 602.554 506.258 602.634 506.334 602.74C506.41 602.847 506.451 602.974 506.451 603.105C506.451 603.236 506.41 603.364 506.334 603.47C506.258 603.576 506.15 603.656 506.026 603.698L503.745 604.525C503.659 604.555 503.581 604.604 503.516 604.669C503.451 604.734 503.402 604.812 503.371 604.898L502.544 607.177C502.502 607.301 502.422 607.408 502.316 607.484C502.209 607.561 502.082 607.602 501.951 607.602C501.82 607.602 501.692 607.561 501.586 607.484C501.479 607.408 501.399 607.301 501.357 607.177L500.53 604.898C500.502 604.81 500.454 604.731 500.389 604.666C500.324 604.601 500.244 604.552 500.157 604.525L497.875 603.698C497.751 603.656 497.644 603.576 497.567 603.47C497.491 603.364 497.45 603.236 497.45 603.105C497.45 602.974 497.491 602.847 497.567 602.74C497.644 602.634 497.751 602.554 497.875 602.512L500.157 601.686C500.244 601.658 500.324 601.61 500.389 601.545C500.454 601.48 500.502 601.4 500.53 601.313L501.357 599.034C501.399 598.91 501.479 598.802 501.586 598.726C501.692 598.65 501.82 598.609 501.951 598.609C502.082 598.609 502.209 598.65 502.316 598.726C502.422 598.802 502.502 598.91 502.544 599.034Z" fill="#FF8A86"/>
<path d="M616.068 610.055L616.882 612.321C616.912 612.411 616.962 612.493 617.03 612.56C617.097 612.627 617.178 612.677 617.268 612.708L619.536 613.521C619.659 613.566 619.764 613.648 619.839 613.755C619.914 613.862 619.954 613.99 619.954 614.12C619.954 614.251 619.914 614.378 619.839 614.486C619.764 614.593 619.659 614.675 619.536 614.72L617.268 615.533C617.18 615.566 617.099 615.617 617.033 615.684C616.966 615.751 616.914 615.831 616.882 615.919L616.068 618.198C616.022 618.321 615.94 618.426 615.833 618.501C615.726 618.576 615.598 618.616 615.468 618.616C615.337 618.616 615.209 618.576 615.102 618.501C614.995 618.426 614.913 618.321 614.867 618.198L614.054 615.919C614.019 615.832 613.966 615.753 613.9 615.687C613.833 615.62 613.754 615.568 613.667 615.533L611.386 614.72C611.263 614.675 611.157 614.593 611.083 614.486C611.008 614.378 610.968 614.251 610.968 614.12C610.968 613.99 611.008 613.862 611.083 613.755C611.157 613.648 611.263 613.566 611.386 613.521L613.64 612.721C613.729 612.688 613.809 612.637 613.876 612.57C613.943 612.503 613.994 612.423 614.027 612.334L614.841 610.069C614.878 609.936 614.958 609.82 615.068 609.736C615.178 609.652 615.311 609.607 615.449 609.605C615.587 609.604 615.722 609.647 615.833 609.728C615.945 609.809 616.027 609.924 616.068 610.055Z" fill="#FF8A86"/>
<path d="M185.973 565.102L186.76 567.408C186.795 567.495 186.847 567.574 186.914 567.641C186.98 567.707 187.06 567.759 187.147 567.794L189.428 568.607C189.551 568.653 189.656 568.735 189.731 568.842C189.806 568.949 189.846 569.076 189.846 569.207C189.846 569.338 189.806 569.465 189.731 569.572C189.656 569.679 189.551 569.761 189.428 569.807L187.147 570.62C187.058 570.652 186.978 570.704 186.911 570.771C186.844 570.837 186.793 570.918 186.76 571.006L185.946 573.272C185.904 573.396 185.824 573.503 185.718 573.58C185.611 573.656 185.484 573.697 185.353 573.697C185.222 573.697 185.094 573.656 184.988 573.58C184.881 573.503 184.801 573.396 184.759 573.272L183.932 571.006C183.902 570.916 183.851 570.835 183.784 570.768C183.717 570.7 183.635 570.65 183.545 570.62L181.277 569.807C181.155 569.761 181.049 569.679 180.975 569.572C180.9 569.465 180.86 569.338 180.86 569.207C180.86 569.076 180.9 568.949 180.975 568.842C181.049 568.735 181.155 568.653 181.277 568.607L183.545 567.794C183.634 567.762 183.714 567.71 183.781 567.643C183.848 567.577 183.899 567.496 183.932 567.408L184.759 565.129C184.791 564.994 184.867 564.873 184.975 564.785C185.083 564.698 185.217 564.649 185.356 564.646C185.495 564.643 185.631 564.686 185.743 564.768C185.854 564.851 185.935 564.968 185.973 565.102Z" fill="#FF8A86"/>
<path d="M97.6089 643.134L98.4226 645.413C98.4576 645.498 98.5101 645.576 98.5767 645.64C98.6433 645.704 98.7226 645.754 98.8095 645.786L101.091 646.612C101.215 646.654 101.322 646.734 101.399 646.841C101.475 646.947 101.516 647.075 101.516 647.205C101.516 647.336 101.475 647.464 101.399 647.57C101.322 647.677 101.215 647.756 101.091 647.798L98.8095 648.625C98.7213 648.654 98.6409 648.703 98.574 648.768C98.507 648.832 98.4554 648.911 98.4226 648.998L97.6089 651.277C97.5634 651.399 97.4815 651.505 97.3742 651.58C97.2669 651.654 97.1393 651.694 97.0086 651.694C96.8779 651.694 96.7503 651.654 96.643 651.58C96.5357 651.505 96.4538 651.399 96.4083 651.277L95.5945 648.998C95.5635 648.91 95.5124 648.83 95.4453 648.766C95.3781 648.701 95.2968 648.653 95.2077 648.625L92.9399 647.798C92.8159 647.756 92.7082 647.677 92.6319 647.57C92.5557 647.464 92.5146 647.336 92.5146 647.205C92.5146 647.075 92.5557 646.947 92.6319 646.841C92.7082 646.734 92.8159 646.654 92.9399 646.612L95.2077 645.786C95.2958 645.756 95.3763 645.708 95.4432 645.643C95.5101 645.578 95.5618 645.5 95.5945 645.413L96.4083 643.134C96.4538 643.011 96.5357 642.906 96.643 642.831C96.7503 642.757 96.8779 642.717 97.0086 642.717C97.1393 642.717 97.2669 642.757 97.3742 642.831C97.4815 642.906 97.5634 643.011 97.6089 643.134Z" fill="#FF8A86"/>
<path d="M417.889 610.056L418.702 612.321C418.735 612.41 418.787 612.49 418.853 612.557C418.92 612.624 419.001 612.675 419.089 612.708L421.37 613.521C421.493 613.566 421.599 613.648 421.673 613.755C421.748 613.862 421.788 613.99 421.788 614.12C421.788 614.251 421.748 614.378 421.673 614.486C421.599 614.593 421.493 614.675 421.37 614.72L419.089 615.533C419.002 615.568 418.923 615.62 418.856 615.687C418.79 615.753 418.737 615.832 418.702 615.92L417.889 618.199C417.843 618.321 417.761 618.427 417.654 618.501C417.547 618.576 417.419 618.616 417.288 618.616C417.158 618.616 417.03 618.576 416.923 618.501C416.816 618.427 416.734 618.321 416.688 618.199L415.874 615.92C415.842 615.831 415.79 615.751 415.723 615.684C415.657 615.617 415.576 615.566 415.488 615.533L413.22 614.72C413.097 614.675 412.992 614.593 412.917 614.486C412.842 614.378 412.802 614.251 412.802 614.12C412.802 613.99 412.842 613.862 412.917 613.755C412.992 613.648 413.097 613.566 413.22 613.521L415.488 612.708C415.578 612.678 415.659 612.627 415.726 612.56C415.794 612.493 415.844 612.411 415.874 612.321L416.688 610.056C416.734 609.933 416.816 609.828 416.923 609.753C417.03 609.678 417.158 609.638 417.288 609.638C417.419 609.638 417.547 609.678 417.654 609.753C417.761 609.828 417.843 609.933 417.889 610.056Z" fill="#FF8A86"/>
<path d="M140.63 634.471L141.097 635.804C141.113 635.854 141.141 635.899 141.178 635.936C141.215 635.973 141.261 636.001 141.311 636.017L142.645 636.484C142.715 636.508 142.776 636.554 142.82 636.615C142.863 636.676 142.886 636.749 142.886 636.824C142.886 636.898 142.863 636.971 142.82 637.032C142.776 637.093 142.715 637.139 142.645 637.163L141.311 637.63C141.261 637.646 141.215 637.674 141.178 637.711C141.141 637.748 141.113 637.793 141.097 637.843L140.63 639.176C140.609 639.248 140.566 639.312 140.506 639.357C140.445 639.403 140.372 639.427 140.297 639.427C140.221 639.427 140.148 639.403 140.088 639.357C140.028 639.312 139.984 639.248 139.963 639.176L139.496 637.843C139.48 637.793 139.452 637.748 139.415 637.711C139.378 637.674 139.333 637.646 139.283 637.63L137.949 637.163C137.878 637.139 137.817 637.093 137.774 637.032C137.73 636.971 137.707 636.898 137.707 636.824C137.707 636.749 137.73 636.676 137.774 636.615C137.817 636.554 137.878 636.508 137.949 636.484L139.283 636.017C139.333 636.001 139.378 635.973 139.415 635.936C139.452 635.899 139.48 635.854 139.496 635.804L139.963 634.471C139.99 634.405 140.036 634.348 140.096 634.309C140.155 634.269 140.225 634.247 140.297 634.247C140.368 634.247 140.438 634.269 140.498 634.309C140.557 634.348 140.603 634.405 140.63 634.471Z" fill="#FF8A86"/>
<path d="M448.678 634.471L449.144 635.804C449.161 635.854 449.189 635.899 449.226 635.936C449.263 635.973 449.308 636.001 449.358 636.017L450.692 636.484C450.763 636.508 450.824 636.554 450.867 636.615C450.91 636.676 450.934 636.749 450.934 636.824C450.934 636.898 450.91 636.971 450.867 637.032C450.824 637.093 450.763 637.139 450.692 637.163L449.358 637.63C449.308 637.646 449.263 637.674 449.226 637.711C449.189 637.748 449.161 637.793 449.144 637.843L448.678 639.176C448.657 639.248 448.613 639.312 448.553 639.357C448.493 639.403 448.419 639.427 448.344 639.427C448.269 639.427 448.195 639.403 448.135 639.357C448.075 639.312 448.031 639.248 448.011 639.176L447.544 637.843C447.526 637.792 447.496 637.746 447.457 637.708C447.417 637.671 447.369 637.644 447.317 637.63L445.983 637.163C445.912 637.139 445.851 637.093 445.808 637.032C445.764 636.971 445.741 636.898 445.741 636.824C445.741 636.749 445.764 636.676 445.808 636.615C445.851 636.554 445.912 636.508 445.983 636.484L447.317 636.017C447.369 636.003 447.417 635.976 447.457 635.939C447.496 635.902 447.526 635.855 447.544 635.804L448.011 634.471C448.038 634.405 448.084 634.348 448.143 634.309C448.203 634.269 448.273 634.247 448.344 634.247C448.416 634.247 448.486 634.269 448.545 634.309C448.604 634.348 448.651 634.405 448.678 634.471Z" fill="#FF8A86"/>
<path d="M608.758 562.237L609.224 563.569C609.266 563.665 609.342 563.741 609.438 563.783L610.772 564.249C610.843 564.274 610.904 564.32 610.947 564.38C610.99 564.441 611.014 564.514 611.014 564.589C611.014 564.664 610.99 564.737 610.947 564.797C610.904 564.858 610.843 564.904 610.772 564.929L609.438 565.382C609.389 565.404 609.345 565.435 609.308 565.474C609.272 565.513 609.243 565.558 609.224 565.609L608.758 566.941C608.733 567.012 608.687 567.073 608.626 567.116C608.565 567.16 608.492 567.183 608.417 567.183C608.343 567.183 608.27 567.16 608.209 567.116C608.148 567.073 608.102 567.012 608.077 566.941L607.624 565.609C607.604 565.557 607.574 565.51 607.535 565.471C607.496 565.432 607.449 565.401 607.397 565.382L606.063 564.929C605.992 564.904 605.931 564.858 605.888 564.797C605.844 564.737 605.821 564.664 605.821 564.589C605.821 564.514 605.844 564.441 605.888 564.38C605.931 564.32 605.992 564.274 606.063 564.249L607.397 563.783C607.447 563.764 607.493 563.736 607.532 563.699C607.571 563.662 607.602 563.618 607.624 563.569L608.077 562.237C608.102 562.166 608.148 562.105 608.209 562.062C608.27 562.018 608.343 561.995 608.417 561.995C608.492 561.995 608.565 562.018 608.626 562.062C608.687 562.105 608.733 562.166 608.758 562.237Z" fill="#FF8A86"/>
<path d="M453.773 546.084L454.24 547.417C454.282 547.512 454.358 547.588 454.454 547.63L455.788 548.097C455.858 548.121 455.92 548.167 455.963 548.228C456.006 548.289 456.03 548.362 456.03 548.436C456.03 548.511 456.006 548.584 455.963 548.645C455.92 548.706 455.858 548.752 455.788 548.776L454.454 549.229C454.405 549.251 454.361 549.282 454.324 549.321C454.287 549.36 454.259 549.406 454.24 549.456L453.773 550.789C453.753 550.861 453.709 550.925 453.649 550.97C453.589 551.015 453.515 551.04 453.44 551.04C453.365 551.04 453.291 551.015 453.231 550.97C453.171 550.925 453.127 550.861 453.106 550.789L452.64 549.456C452.621 549.406 452.592 549.36 452.556 549.321C452.519 549.282 452.475 549.251 452.426 549.229L451.092 548.776C451.021 548.752 450.96 548.706 450.917 548.645C450.874 548.584 450.85 548.511 450.85 548.436C450.85 548.362 450.874 548.289 450.917 548.228C450.96 548.167 451.021 548.121 451.092 548.097L452.426 547.63C452.522 547.588 452.598 547.512 452.64 547.417L453.106 546.084C453.127 546.012 453.171 545.948 453.231 545.903C453.291 545.857 453.365 545.833 453.44 545.833C453.515 545.833 453.589 545.857 453.649 545.903C453.709 545.948 453.753 546.012 453.773 546.084Z" fill="#FF8A86"/>
<path d="M68.194 532.264L68.6476 533.596C68.6652 533.648 68.695 533.694 68.7346 533.731C68.7741 533.768 68.8221 533.795 68.8744 533.81L70.2084 534.276C70.279 534.301 70.3403 534.346 70.3836 534.407C70.4269 534.468 70.4502 534.541 70.4502 534.616C70.4502 534.691 70.4269 534.763 70.3836 534.824C70.3403 534.885 70.279 534.931 70.2084 534.956L68.8744 535.422C68.8221 535.437 68.7741 535.464 68.7346 535.501C68.695 535.538 68.6652 535.584 68.6476 535.635L68.194 536.968C68.1695 537.039 68.1235 537.1 68.0626 537.143C68.0016 537.186 67.9287 537.21 67.8539 537.21C67.7791 537.21 67.7062 537.186 67.6452 537.143C67.5842 537.1 67.5383 537.039 67.5137 536.968L67.0468 535.635C67.0305 535.586 67.0027 535.54 66.9656 535.503C66.9285 535.466 66.8832 535.438 66.8334 535.422L65.4994 534.956C65.4287 534.931 65.3675 534.885 65.3242 534.824C65.2809 534.763 65.2576 534.691 65.2576 534.616C65.2576 534.541 65.2809 534.468 65.3242 534.407C65.3675 534.346 65.4287 534.301 65.4994 534.276L66.8334 533.81C66.8832 533.793 66.9285 533.765 66.9656 533.728C67.0027 533.691 67.0305 533.646 67.0468 533.596L67.5137 532.264C67.5383 532.193 67.5842 532.132 67.6452 532.089C67.7062 532.045 67.7791 532.022 67.8539 532.022C67.9287 532.022 68.0016 532.045 68.0626 532.089C68.1235 532.132 68.1695 532.193 68.194 532.264Z" fill="#FF8A86"/>
<path d="M545.699 623.383L546.153 624.716C546.171 624.767 546.2 624.813 546.24 624.85C546.279 624.888 546.327 624.914 546.38 624.929L547.714 625.395C547.784 625.42 547.846 625.466 547.889 625.527C547.932 625.588 547.956 625.66 547.956 625.735C547.956 625.81 547.932 625.883 547.889 625.944C547.846 626.005 547.784 626.05 547.714 626.075L546.38 626.542C546.327 626.556 546.279 626.583 546.24 626.62C546.2 626.657 546.171 626.703 546.153 626.755L545.699 628.087C545.675 628.158 545.629 628.219 545.568 628.263C545.507 628.306 545.434 628.329 545.359 628.329C545.284 628.329 545.212 628.306 545.151 628.263C545.09 628.219 545.044 628.158 545.019 628.087L544.552 626.755C544.536 626.705 544.508 626.66 544.471 626.623C544.434 626.586 544.389 626.558 544.339 626.542L543.005 626.075C542.934 626.05 542.873 626.005 542.83 625.944C542.786 625.883 542.763 625.81 542.763 625.735C542.763 625.66 542.786 625.588 542.83 625.527C542.873 625.466 542.934 625.42 543.005 625.395L544.339 624.929C544.389 624.913 544.434 624.885 544.471 624.848C544.508 624.811 544.536 624.765 544.552 624.716L545.019 623.383C545.044 623.312 545.09 623.251 545.151 623.208C545.212 623.165 545.284 623.141 545.359 623.141C545.434 623.141 545.507 623.165 545.568 623.208C545.629 623.251 545.675 623.312 545.699 623.383Z" fill="#FF8A86"/>
<path d="M540.59 543.498L541.057 544.831C541.079 544.88 541.11 544.924 541.149 544.961C541.188 544.997 541.234 545.026 541.284 545.044L542.618 545.511C542.69 545.532 542.754 545.575 542.799 545.635C542.845 545.695 542.869 545.769 542.869 545.844C542.869 545.919 542.845 545.993 542.799 546.053C542.754 546.113 542.69 546.157 542.618 546.177L541.284 546.644C541.232 546.663 541.185 546.693 541.146 546.732C541.107 546.771 541.076 546.818 541.057 546.87L540.59 548.203C540.569 548.275 540.526 548.339 540.466 548.384C540.405 548.43 540.332 548.454 540.257 548.454C540.181 548.454 540.108 548.43 540.048 548.384C539.988 548.339 539.944 548.275 539.923 548.203L539.456 546.87C539.438 546.82 539.409 546.774 539.372 546.735C539.336 546.696 539.292 546.665 539.243 546.644L537.909 546.177C537.836 546.157 537.773 546.113 537.727 546.053C537.682 545.993 537.657 545.919 537.657 545.844C537.657 545.769 537.682 545.695 537.727 545.635C537.773 545.575 537.836 545.532 537.909 545.511L539.243 545.044C539.338 545.003 539.415 544.927 539.456 544.831L539.923 543.498C539.944 543.426 539.988 543.362 540.048 543.317C540.108 543.272 540.181 543.247 540.257 543.247C540.332 543.247 540.405 543.272 540.466 543.317C540.526 543.362 540.569 543.426 540.59 543.498Z" fill="#FF8A86"/>
<path d="M30.0549 729.496L30.5218 730.828C30.5636 730.924 30.6398 731 30.7353 731.041L32.0693 731.508C32.1418 731.529 32.2055 731.572 32.2509 731.632C32.2963 731.693 32.3209 731.766 32.3209 731.841C32.3209 731.916 32.2963 731.99 32.2509 732.05C32.2055 732.11 32.1418 732.154 32.0693 732.174L30.6819 732.667C30.5864 732.709 30.5102 732.785 30.4685 732.881L30.0016 734.213C29.977 734.284 29.931 734.345 29.8701 734.388C29.8091 734.432 29.7362 734.455 29.6614 734.455C29.5866 734.455 29.5137 734.432 29.4527 734.388C29.3918 734.345 29.3458 734.284 29.3212 734.213L28.8677 732.881C28.8461 732.832 28.8149 732.788 28.7759 732.751C28.737 732.714 28.691 732.686 28.6409 732.667L27.3069 732.201C27.2406 732.174 27.1839 732.128 27.144 732.069C27.1041 732.009 27.0828 731.939 27.0828 731.868C27.0828 731.796 27.1041 731.726 27.144 731.667C27.1839 731.608 27.2406 731.562 27.3069 731.535L28.6409 731.068C28.691 731.05 28.737 731.021 28.7759 730.984C28.8149 730.948 28.8461 730.904 28.8677 730.855L29.3212 729.522C29.3177 729.425 29.353 729.33 29.4193 729.259C29.4856 729.188 29.5775 729.146 29.6748 729.142C29.772 729.139 29.8668 729.174 29.9381 729.24C30.0094 729.307 30.0514 729.398 30.0549 729.496Z" fill="#FF8A86"/>
<path d="M119.833 591.81L120.3 593.143C120.316 593.193 120.344 593.238 120.381 593.275C120.418 593.312 120.464 593.34 120.514 593.356L121.848 593.823C121.918 593.847 121.979 593.893 122.023 593.954C122.066 594.015 122.089 594.088 122.089 594.162C122.089 594.237 122.066 594.31 122.023 594.371C121.979 594.432 121.918 594.478 121.848 594.502L120.514 594.969C120.464 594.985 120.418 595.013 120.381 595.05C120.344 595.087 120.316 595.132 120.3 595.182L119.833 596.515C119.809 596.585 119.763 596.646 119.702 596.69C119.641 596.733 119.568 596.756 119.493 596.756C119.418 596.756 119.345 596.733 119.284 596.69C119.223 596.646 119.177 596.585 119.153 596.515L118.686 595.182C118.673 595.13 118.646 595.083 118.609 595.046C118.571 595.008 118.524 594.982 118.473 594.969L117.139 594.502C117.068 594.478 117.007 594.432 116.963 594.371C116.92 594.31 116.897 594.237 116.897 594.162C116.897 594.088 116.92 594.015 116.963 593.954C117.007 593.893 117.068 593.847 117.139 593.823L118.473 593.356C118.524 593.343 118.571 593.317 118.609 593.279C118.646 593.241 118.673 593.194 118.686 593.143L119.153 591.81C119.177 591.74 119.223 591.678 119.284 591.635C119.345 591.592 119.418 591.569 119.493 591.569C119.568 591.569 119.641 591.592 119.702 591.635C119.763 591.678 119.809 591.74 119.833 591.81Z" fill="#FF8A86"/>
<path d="M30.0551 620.717L30.522 622.05C30.5637 622.146 30.64 622.222 30.7355 622.263L32.0695 622.73C32.1401 622.754 32.2013 622.8 32.2447 622.861C32.288 622.922 32.3113 622.995 32.3113 623.07C32.3113 623.144 32.288 623.217 32.2447 623.278C32.2013 623.339 32.1401 623.385 32.0695 623.41L30.7355 623.863C30.6865 623.884 30.6424 623.915 30.6058 623.954C30.5691 623.993 30.5406 624.039 30.522 624.089L30.0551 625.422C30.0306 625.493 29.9846 625.554 29.9236 625.597C29.8627 625.64 29.7897 625.664 29.715 625.664C29.6402 625.664 29.5672 625.64 29.5063 625.597C29.4453 625.554 29.3994 625.493 29.3748 625.422L28.9212 624.089C28.9018 624.037 28.8716 623.99 28.8325 623.951C28.7933 623.912 28.7463 623.882 28.6945 623.863L27.3605 623.41C27.2898 623.385 27.2286 623.339 27.1853 623.278C27.1419 623.217 27.1187 623.144 27.1187 623.07C27.1187 622.995 27.1419 622.922 27.1853 622.861C27.2286 622.8 27.2898 622.754 27.3605 622.73L28.6945 622.263C28.7446 622.245 28.7905 622.216 28.8295 622.18C28.8684 622.143 28.8996 622.099 28.9212 622.05L29.3748 620.717C29.3994 620.647 29.4453 620.586 29.5063 620.542C29.5672 620.499 29.6402 620.476 29.715 620.476C29.7897 620.476 29.8627 620.499 29.9236 620.542C29.9846 620.586 30.0306 620.647 30.0551 620.717Z" fill="#FF8A86"/>
</g>
</g>
<defs>
<linearGradient id="paint0_linear_353_30426" x1="333.5" y1="843.386" x2="333.5" y2="455.799" gradientUnits="userSpaceOnUse">
<stop stop-color="white"/>
<stop offset="0.01" stop-color="white" stop-opacity="0.96"/>
<stop offset="0.05" stop-color="white" stop-opacity="0.78"/>
<stop offset="0.09" stop-color="white" stop-opacity="0.61"/>
<stop offset="0.14" stop-color="white" stop-opacity="0.47"/>
<stop offset="0.2" stop-color="white" stop-opacity="0.34"/>
<stop offset="0.25" stop-color="white" stop-opacity="0.23"/>
<stop offset="0.32" stop-color="white" stop-opacity="0.15"/>
<stop offset="0.4" stop-color="white" stop-opacity="0.08"/>
<stop offset="0.49" stop-color="white" stop-opacity="0.03"/>
<stop offset="0.63" stop-color="white" stop-opacity="0.01"/>
<stop offset="1" stop-color="white" stop-opacity="0"/>
</linearGradient>
<linearGradient id="paint1_linear_353_30426" x1="333.5" y1="947.545" x2="333.5" y2="736.652" gradientUnits="userSpaceOnUse">
<stop stop-color="white"/>
<stop offset="0.01" stop-color="white" stop-opacity="0.96"/>
<stop offset="0.05" stop-color="white" stop-opacity="0.78"/>
<stop offset="0.09" stop-color="white" stop-opacity="0.61"/>
<stop offset="0.14" stop-color="white" stop-opacity="0.47"/>
<stop offset="0.2" stop-color="white" stop-opacity="0.34"/>
<stop offset="0.25" stop-color="white" stop-opacity="0.23"/>
<stop offset="0.32" stop-color="white" stop-opacity="0.15"/>
<stop offset="0.4" stop-color="white" stop-opacity="0.08"/>
<stop offset="0.49" stop-color="white" stop-opacity="0.03"/>
<stop offset="0.63" stop-color="white" stop-opacity="0.01"/>
<stop offset="1" stop-color="white" stop-opacity="0"/>
</linearGradient>
<linearGradient id="paint2_linear_353_30426" x1="333.5" y1="1129.36" x2="333.5" y2="972.081" gradientUnits="userSpaceOnUse">
<stop stop-color="white"/>
<stop offset="0.12" stop-color="white" stop-opacity="0.78"/>
<stop offset="0.24" stop-color="white" stop-opacity="0.58"/>
<stop offset="0.37" stop-color="white" stop-opacity="0.4"/>
<stop offset="0.5" stop-color="white" stop-opacity="0.26"/>
<stop offset="0.63" stop-color="white" stop-opacity="0.14"/>
<stop offset="0.75" stop-color="white" stop-opacity="0.06"/>
<stop offset="0.88" stop-color="white" stop-opacity="0.02"/>
<stop offset="1" stop-color="white" stop-opacity="0"/>
</linearGradient>
<clipPath id="clip0_353_30426">
<rect width="665" height="1024" fill="white"/>
</clipPath>
<clipPath id="clip1_353_30426">
<rect width="667" height="535" fill="white" transform="translate(0 489)"/>
</clipPath>
</defs>
</svg>
