<svg width="60" height="15" viewBox="0 0 60 15" fill="none" xmlns="http://www.w3.org/2000/svg">
<path d="M22.4451 3.27222H19.1292C18.9023 3.27222 18.7093 3.43707 18.6739 3.66107L17.3328 12.1639C17.3062 12.3316 17.4361 12.4829 17.6063 12.4829H19.1893C19.4162 12.4829 19.6092 12.318 19.6446 12.0935L20.0063 9.80022C20.0412 9.57573 20.2346 9.41088 20.4611 9.41088H21.5108C23.695 9.41088 24.9556 8.35391 25.2848 6.25937C25.4332 5.343 25.2911 4.623 24.862 4.11876C24.3908 3.56507 23.5549 3.27222 22.4451 3.27222ZM22.8276 6.37767C22.6463 7.56749 21.7372 7.56749 20.8582 7.56749H20.3578L20.7088 5.34543C20.7297 5.21113 20.846 5.11222 20.9818 5.11222H21.2111C21.8099 5.11222 22.3748 5.11222 22.6666 5.45355C22.8407 5.65719 22.894 5.95973 22.8276 6.37767Z" fill="#253B80"/>
<path d="M32.357 6.33927H30.7691C30.6338 6.33927 30.517 6.43818 30.4961 6.57249L30.4258 7.01661L30.3148 6.85564C29.971 6.35673 29.2045 6.18994 28.4394 6.18994C26.6847 6.18994 25.1861 7.51891 24.8942 9.38315C24.7424 10.3131 24.9582 11.2023 25.4857 11.8224C25.9696 12.3926 26.6619 12.6302 27.4857 12.6302C28.8995 12.6302 29.6835 11.7211 29.6835 11.7211L29.6127 12.1623C29.5861 12.331 29.716 12.4823 29.8852 12.4823H31.3155C31.5429 12.4823 31.7349 12.3175 31.7708 12.093L32.629 6.6583C32.6561 6.49103 32.5267 6.33927 32.357 6.33927ZM30.1436 9.4297C29.9904 10.3368 29.2704 10.9458 28.3521 10.9458C27.891 10.9458 27.5225 10.7979 27.2859 10.5177C27.0513 10.2394 26.9621 9.84327 27.0367 9.40206C27.1798 8.50267 27.9119 7.87382 28.8161 7.87382C29.267 7.87382 29.6336 8.02364 29.875 8.3063C30.117 8.59188 30.213 8.99043 30.1436 9.4297Z" fill="#253B80"/>
<path d="M40.8136 6.33936H39.218C39.0658 6.33936 38.9227 6.41499 38.8364 6.54154L36.6357 9.78323L35.7029 6.66808C35.6442 6.47317 35.4643 6.33936 35.2607 6.33936H33.6927C33.5021 6.33936 33.3698 6.52554 33.4304 6.70493L35.1879 11.8627L33.5356 14.1954C33.4056 14.3791 33.5366 14.6317 33.761 14.6317H35.3547C35.506 14.6317 35.6476 14.558 35.7334 14.4339L41.0406 6.7733C41.1676 6.59002 41.0372 6.33936 40.8136 6.33936Z" fill="#253B80"/>
<path d="M46.0964 3.27222H42.7801C42.5537 3.27222 42.3607 3.43707 42.3253 3.66107L40.9842 12.1639C40.9575 12.3316 41.0875 12.4829 41.2567 12.4829H42.9585C43.1166 12.4829 43.2518 12.3675 43.2766 12.2104L43.6572 9.80022C43.6921 9.57573 43.8855 9.41088 44.112 9.41088H45.1612C47.3459 9.41088 48.606 8.35391 48.9357 6.25937C49.0846 5.343 48.9415 4.623 48.5124 4.11876C48.0416 3.56507 47.2063 3.27222 46.0964 3.27222ZM46.479 6.37767C46.2981 7.56749 45.389 7.56749 44.5095 7.56749H44.0097L44.3612 5.34543C44.382 5.21113 44.4974 5.11222 44.6336 5.11222H44.863C45.4613 5.11222 46.0266 5.11222 46.3185 5.45355C46.4926 5.65719 46.5454 5.95973 46.479 6.37767Z" fill="#179BD7"/>
<path d="M56.0077 6.33927H54.4208C54.2846 6.33927 54.1687 6.43818 54.1483 6.57249L54.078 7.01661L53.9665 6.85564C53.6228 6.35673 52.8567 6.18994 52.0916 6.18994C50.3369 6.18994 48.8388 7.51891 48.5469 9.38315C48.3956 10.3131 48.6104 11.2023 49.1379 11.8224C49.6228 12.3926 50.3142 12.6302 51.1379 12.6302C52.5517 12.6302 53.3357 11.7211 53.3357 11.7211L53.2649 12.1623C53.2383 12.331 53.3682 12.4823 53.5384 12.4823H54.9682C55.1946 12.4823 55.3876 12.3175 55.423 12.093L56.2817 6.6583C56.3078 6.49103 56.1779 6.33927 56.0077 6.33927ZM53.7944 9.4297C53.6422 10.3368 52.9212 10.9458 52.0029 10.9458C51.5428 10.9458 51.1733 10.7979 50.9367 10.5177C50.702 10.2394 50.6138 9.84327 50.6875 9.40206C50.8315 8.50267 51.5626 7.87382 52.4669 7.87382C52.9178 7.87382 53.2843 8.02364 53.5258 8.3063C53.7687 8.59188 53.8647 8.99043 53.7944 9.4297Z" fill="#179BD7"/>
<path d="M57.8798 3.50543L56.5189 12.1638C56.4922 12.3316 56.6221 12.4829 56.7913 12.4829H58.1596C58.387 12.4829 58.58 12.318 58.6149 12.0935L59.9569 3.59124C59.9836 3.42349 59.8537 3.27173 59.6844 3.27173H58.1523C58.017 3.27221 57.9007 3.37112 57.8798 3.50543Z" fill="#179BD7"/>
<path d="M3.56268 14.1354L3.81626 12.5247L3.25141 12.5116H0.554199L2.42862 0.626521C2.43444 0.590643 2.45335 0.557188 2.48099 0.533431C2.50862 0.509673 2.54402 0.496582 2.58087 0.496582H7.12874C8.63856 0.496582 9.6805 0.810764 10.2245 1.43089C10.4795 1.72179 10.642 2.02579 10.7205 2.36034C10.8029 2.71137 10.8044 3.13076 10.7239 3.64228L10.7181 3.67961V4.00737L10.9731 4.15185C11.1879 4.26579 11.3586 4.39622 11.4895 4.54555C11.7077 4.79428 11.8487 5.1104 11.9084 5.48519C11.97 5.87064 11.9496 6.32931 11.8487 6.84858C11.7324 7.44592 11.5443 7.96616 11.2902 8.39185C11.0565 8.7841 10.7588 9.10943 10.4053 9.36155C10.0679 9.60107 9.66693 9.78288 9.21359 9.89925C8.77432 10.0137 8.27347 10.0714 7.72414 10.0714H7.3702C7.11711 10.0714 6.87129 10.1625 6.67832 10.3259C6.48487 10.4927 6.35687 10.7206 6.31759 10.9698L6.29093 11.1148L5.84293 13.9536L5.82256 14.0578C5.81723 14.0908 5.80802 14.1072 5.79444 14.1184C5.78232 14.1286 5.76487 14.1354 5.7479 14.1354H3.56268Z" fill="#253B80"/>
<path d="M11.2147 3.71729C11.2011 3.80407 11.1856 3.8928 11.1681 3.98395C10.5684 7.06322 8.51649 8.12698 5.89588 8.12698H4.56158C4.24109 8.12698 3.97103 8.35971 3.92109 8.67583L3.23794 13.0084L3.04449 14.2366C3.012 14.4441 3.172 14.6312 3.38146 14.6312H5.748C6.02824 14.6312 6.2663 14.4276 6.31042 14.1512L6.3337 14.031L6.77927 11.2033L6.80788 11.0482C6.85152 10.7709 7.09006 10.5672 7.3703 10.5672H7.72424C10.0171 10.5672 11.812 9.63632 12.3366 6.9425C12.5558 5.81716 12.4423 4.87753 11.8624 4.21668C11.6869 4.01741 11.4692 3.85207 11.2147 3.71729Z" fill="#179BD7"/>
<path d="M10.5871 3.46723C10.4954 3.44056 10.4009 3.41632 10.3039 3.3945C10.2065 3.37317 10.1066 3.35426 10.0038 3.33777C9.64405 3.27959 9.24987 3.25195 8.82757 3.25195H5.26296C5.1752 3.25195 5.09181 3.27183 5.01714 3.30771C4.85278 3.38674 4.7306 3.54238 4.70102 3.73292L3.94272 8.53583L3.9209 8.67595C3.97084 8.35983 4.2409 8.1271 4.56138 8.1271H5.89569C8.51629 8.1271 10.5682 7.06286 11.1679 3.98407C11.1859 3.89292 11.2009 3.8042 11.2145 3.71741C11.0627 3.63692 10.8984 3.56807 10.7214 3.50941C10.6777 3.49486 10.6327 3.4808 10.5871 3.46723Z" fill="#222D65"/>
<path d="M4.70112 3.73285C4.7307 3.5423 4.85288 3.38667 5.01724 3.30812C5.09239 3.27224 5.1753 3.25236 5.26306 3.25236H8.82767C9.24997 3.25236 9.64415 3.28 10.0039 3.33818C10.1067 3.35467 10.2066 3.37358 10.304 3.39491C10.401 3.41673 10.4955 3.44097 10.5872 3.46764C10.6328 3.48121 10.6778 3.49527 10.722 3.50933C10.8989 3.568 11.0633 3.63733 11.2151 3.71733C11.3935 2.57939 11.2136 1.80461 10.5983 1.10303C9.92003 0.330667 8.69579 0 7.12924 0H2.58137C2.26137 0 1.9884 0.232727 1.93894 0.549333L0.044638 12.5566C0.00730466 12.7942 0.190577 13.0085 0.430092 13.0085H3.23785L3.94282 8.53576L4.70112 3.73285Z" fill="#253B80"/>
</svg>
