<svg width="424" height="61" viewBox="0 0 424 61" fill="none" xmlns="http://www.w3.org/2000/svg">
<path d="M5.76 51.792H2.544V56H1.392V44.544H5.76C7.968 44.544 9.36 45.984 9.36 48.144C9.36 50.224 7.952 51.792 5.76 51.792ZM5.6 45.584H2.544V50.752H5.536C7.2 50.752 8.16 49.696 8.16 48.128C8.16 46.544 7.184 45.584 5.6 45.584ZM12.8916 56.192C11.2436 56.192 10.2676 55.264 10.2676 53.904C10.2676 52.48 11.3556 51.584 13.1636 51.44L15.7236 51.232V50.976C15.7236 49.456 14.8116 48.976 13.6756 48.976C12.3316 48.976 11.5316 49.584 11.5316 50.624H10.5236C10.5236 49.056 11.8036 48.048 13.7076 48.048C15.4996 48.048 16.8116 48.944 16.8116 50.992V56H15.8836L15.7396 54.64C15.2596 55.616 14.2036 56.192 12.8916 56.192ZM13.1476 55.296C14.7796 55.296 15.7236 54.16 15.7236 52.48V52.064L13.4356 52.24C11.9796 52.368 11.3876 53.008 11.3876 53.872C11.3876 54.816 12.0916 55.296 13.1476 55.296ZM18.0711 59.376V58.464H18.9191C19.5911 58.464 20.2631 58.416 20.6471 57.376L20.9831 56.464L17.8471 48.256H19.0151L21.5111 55.008L23.9591 48.256H25.0951L21.5431 57.776C21.0951 58.992 20.3431 59.488 19.2391 59.488C18.7751 59.488 18.4231 59.456 18.0711 59.376ZM27.4904 56H26.3864V48.256H27.3464L27.4744 49.36C27.8584 48.544 28.7224 48.048 29.8104 48.048C31.0264 48.048 31.9384 48.688 32.3064 49.696C32.6584 48.688 33.6024 48.048 34.8504 48.048C36.5304 48.048 37.6344 49.136 37.6344 50.928V56H36.5624V51.152C36.5624 49.824 35.8264 49.04 34.6424 49.04C33.3464 49.04 32.5784 50.016 32.5784 51.216V56H31.4904V51.136C31.4904 49.824 30.7384 49.056 29.5704 49.056C28.2744 49.056 27.4904 50.016 27.4904 51.2V56ZM43.1031 56.192C40.8311 56.192 39.3111 54.56 39.3111 52.128C39.3111 49.712 40.8151 48.048 43.0231 48.048C45.1191 48.048 46.5431 49.536 46.5431 51.728V52.272H40.3831C40.4631 54.16 41.4551 55.248 43.1191 55.248C44.3831 55.248 45.1991 54.704 45.4871 53.68H46.5431C46.1271 55.312 44.9271 56.192 43.1031 56.192ZM43.0231 48.992C41.5671 48.992 40.6071 49.952 40.4151 51.472H45.4391C45.4391 49.984 44.4791 48.992 43.0231 48.992ZM49.4123 56H48.3083V48.256H49.2682L49.4283 49.6C49.9403 48.608 50.9643 48.048 52.0843 48.048C54.2123 48.048 55.0923 49.312 55.0923 51.264V56H53.9883V51.504C53.9883 49.696 53.1723 49.056 51.8923 49.056C50.3083 49.056 49.4123 50.208 49.4123 51.952V56ZM59.0686 56H57.9806V49.184H56.4286V48.256H57.9806V45.808H59.0686V48.256H60.6206V49.184H59.0686V56ZM71.1038 51.792H67.8878V56H66.7358V44.544H71.1038C73.3118 44.544 74.7038 45.984 74.7038 48.144C74.7038 50.224 73.2958 51.792 71.1038 51.792ZM70.9438 45.584H67.8878V50.752H70.8798C72.5438 50.752 73.5038 49.696 73.5038 48.128C73.5038 46.544 72.5278 45.584 70.9438 45.584ZM77.4759 56H76.3719V44.336H77.4759V56ZM82.0479 56.192C80.3999 56.192 79.4239 55.264 79.4239 53.904C79.4239 52.48 80.5119 51.584 82.3199 51.44L84.8799 51.232V50.976C84.8799 49.456 83.9679 48.976 82.8319 48.976C81.4879 48.976 80.6879 49.584 80.6879 50.624H79.6799C79.6799 49.056 80.9599 48.048 82.8639 48.048C84.6559 48.048 85.9679 48.944 85.9679 50.992V56H85.0399L84.8959 54.64C84.4159 55.616 83.3599 56.192 82.0479 56.192ZM82.3039 55.296C83.9359 55.296 84.8799 54.16 84.8799 52.48V52.064L82.5919 52.24C81.1359 52.368 80.5439 53.008 80.5439 53.872C80.5439 54.816 81.2479 55.296 82.3039 55.296ZM89.2873 56H88.1833V48.256H89.1432L89.3033 49.6C89.8153 48.608 90.8393 48.048 91.9593 48.048C94.0873 48.048 94.9673 49.312 94.9673 51.264V56H93.8633V51.504C93.8633 49.696 93.0473 49.056 91.7673 49.056C90.1833 49.056 89.2873 50.208 89.2873 51.952V56Z" fill="black"/>
<path d="M182.017 47.52C182.017 45.6 183.553 44.336 185.857 44.336C187.921 44.336 189.281 45.488 189.457 47.408H188.289C188.161 46.112 187.281 45.376 185.841 45.376C184.225 45.376 183.169 46.208 183.169 47.504C183.169 48.512 183.761 49.152 184.961 49.456L186.929 49.936C188.721 50.368 189.649 51.392 189.649 52.944C189.649 54.928 188.113 56.192 185.745 56.192C183.521 56.192 182.017 55.024 181.873 53.152H183.057C183.121 54.352 184.177 55.136 185.745 55.136C187.425 55.136 188.497 54.32 188.497 53.008C188.497 51.984 187.921 51.312 186.689 51.024L184.753 50.544C182.961 50.112 182.017 49.088 182.017 47.52ZM192.024 46.128C191.576 46.128 191.208 45.76 191.208 45.312C191.208 44.864 191.576 44.48 192.024 44.48C192.472 44.48 192.856 44.864 192.856 45.312C192.856 45.76 192.472 46.128 192.024 46.128ZM191.48 56V48.256H192.584V56H191.48ZM194.358 51.904C194.358 49.792 195.718 48.048 197.99 48.048C199.334 48.048 200.358 48.672 200.854 49.808L200.966 48.256H201.926V55.76C201.926 58.064 200.454 59.568 198.182 59.568C196.198 59.568 194.806 58.448 194.502 56.576H195.606C195.846 57.824 196.806 58.56 198.198 58.56C199.782 58.56 200.838 57.488 200.838 55.872V54.032C200.31 55.12 199.238 55.76 197.91 55.76C195.702 55.76 194.358 54.016 194.358 51.904ZM195.462 51.888C195.462 53.472 196.438 54.768 198.07 54.768C199.75 54.768 200.742 53.552 200.742 51.888C200.742 50.24 199.782 49.024 198.086 49.024C196.422 49.024 195.462 50.32 195.462 51.888ZM205.334 56H204.23V48.256H205.19L205.35 49.6C205.862 48.608 206.886 48.048 208.006 48.048C210.134 48.048 211.014 49.312 211.014 51.264V56H209.91V51.504C209.91 49.696 209.094 49.056 207.814 49.056C206.23 49.056 205.334 50.208 205.334 51.952V56ZM223.092 48.256H224.196V56H223.236L223.092 54.688C222.66 55.584 221.588 56.192 220.372 56.192C218.548 56.192 217.556 54.944 217.556 53.056V48.24H218.676V52.704C218.676 54.544 219.492 55.2 220.724 55.2C222.212 55.2 223.092 54.208 223.092 52.368V48.256ZM226.496 59.376V48.256H227.456L227.568 49.824C228.112 48.624 229.2 48.048 230.496 48.048C232.736 48.048 234.08 49.76 234.08 52.096C234.08 54.432 232.784 56.192 230.496 56.192C229.184 56.192 228.144 55.632 227.6 54.512V59.376H226.496ZM227.616 52.128C227.616 53.904 228.608 55.2 230.304 55.2C231.984 55.2 232.96 53.904 232.96 52.128C232.96 50.336 231.984 49.056 230.304 49.056C228.608 49.056 227.616 50.336 227.616 52.128Z" fill="black"/>
<path d="M317.83 51.792H314.614V56H313.462V44.544H317.83C320.038 44.544 321.43 45.984 321.43 48.144C321.43 50.224 320.022 51.792 317.83 51.792ZM317.67 45.584H314.614V50.752H317.606C319.27 50.752 320.23 49.696 320.23 48.128C320.23 46.544 319.254 45.584 317.67 45.584ZM324.962 56.192C323.314 56.192 322.338 55.264 322.338 53.904C322.338 52.48 323.426 51.584 325.234 51.44L327.794 51.232V50.976C327.794 49.456 326.882 48.976 325.746 48.976C324.402 48.976 323.602 49.584 323.602 50.624H322.594C322.594 49.056 323.874 48.048 325.778 48.048C327.57 48.048 328.882 48.944 328.882 50.992V56H327.954L327.81 54.64C327.33 55.616 326.274 56.192 324.962 56.192ZM325.218 55.296C326.85 55.296 327.794 54.16 327.794 52.48V52.064L325.506 52.24C324.05 52.368 323.458 53.008 323.458 53.872C323.458 54.816 324.162 55.296 325.218 55.296ZM330.141 59.376V58.464H330.989C331.661 58.464 332.333 58.416 332.717 57.376L333.053 56.464L329.917 48.256H331.085L333.581 55.008L336.029 48.256H337.165L333.613 57.776C333.165 58.992 332.413 59.488 331.309 59.488C330.845 59.488 330.493 59.456 330.141 59.376ZM339.561 56H338.457V48.256H339.417L339.545 49.36C339.929 48.544 340.793 48.048 341.881 48.048C343.097 48.048 344.009 48.688 344.377 49.696C344.729 48.688 345.673 48.048 346.921 48.048C348.601 48.048 349.705 49.136 349.705 50.928V56H348.633V51.152C348.633 49.824 347.897 49.04 346.713 49.04C345.417 49.04 344.649 50.016 344.649 51.216V56H343.561V51.136C343.561 49.824 342.809 49.056 341.641 49.056C340.345 49.056 339.561 50.016 339.561 51.2V56ZM355.173 56.192C352.901 56.192 351.381 54.56 351.381 52.128C351.381 49.712 352.885 48.048 355.093 48.048C357.189 48.048 358.613 49.536 358.613 51.728V52.272H352.453C352.533 54.16 353.525 55.248 355.189 55.248C356.453 55.248 357.269 54.704 357.557 53.68H358.613C358.197 55.312 356.997 56.192 355.173 56.192ZM355.093 48.992C353.637 48.992 352.677 49.952 352.485 51.472H357.509C357.509 49.984 356.549 48.992 355.093 48.992ZM361.483 56H360.379V48.256H361.339L361.499 49.6C362.011 48.608 363.035 48.048 364.155 48.048C366.283 48.048 367.163 49.312 367.163 51.264V56H366.059V51.504C366.059 49.696 365.243 49.056 363.963 49.056C362.379 49.056 361.483 50.208 361.483 51.952V56ZM371.139 56H370.051V49.184H368.499V48.256H370.051V45.808H371.139V48.256H372.691V49.184H371.139V56ZM382.294 56H378.806V44.544H382.262C385.718 44.544 388.022 46.848 388.022 50.272C388.022 53.696 385.734 56 382.294 56ZM382.214 45.6H379.958V54.944H382.246C385.046 54.944 386.838 53.12 386.838 50.272C386.838 47.408 385.046 45.6 382.214 45.6ZM393.111 56.192C390.839 56.192 389.319 54.56 389.319 52.128C389.319 49.712 390.823 48.048 393.031 48.048C395.127 48.048 396.551 49.536 396.551 51.728V52.272H390.391C390.471 54.16 391.463 55.248 393.127 55.248C394.391 55.248 395.207 54.704 395.495 53.68H396.551C396.135 55.312 394.935 56.192 393.111 56.192ZM393.031 48.992C391.575 48.992 390.615 49.952 390.423 51.472H395.447C395.447 49.984 394.487 48.992 393.031 48.992ZM400.014 56H398.926V49.184H397.374V48.256H398.926V45.808H400.014V48.256H401.566V49.184H400.014V56ZM405.103 56.192C403.455 56.192 402.479 55.264 402.479 53.904C402.479 52.48 403.567 51.584 405.375 51.44L407.935 51.232V50.976C407.935 49.456 407.023 48.976 405.887 48.976C404.543 48.976 403.743 49.584 403.743 50.624H402.735C402.735 49.056 404.015 48.048 405.919 48.048C407.711 48.048 409.023 48.944 409.023 50.992V56H408.095L407.951 54.64C407.471 55.616 406.415 56.192 405.103 56.192ZM405.359 55.296C406.991 55.296 407.935 54.16 407.935 52.48V52.064L405.647 52.24C404.191 52.368 403.599 53.008 403.599 53.872C403.599 54.816 404.303 55.296 405.359 55.296ZM411.782 46.128C411.334 46.128 410.966 45.76 410.966 45.312C410.966 44.864 411.334 44.48 411.782 44.48C412.23 44.48 412.614 44.864 412.614 45.312C412.614 45.76 412.23 46.128 411.782 46.128ZM411.238 56V48.256H412.342V56H411.238ZM415.796 56H414.692V44.336H415.796V56ZM417.488 53.824H418.544C418.544 54.72 419.216 55.28 420.304 55.28C421.504 55.28 422.208 54.768 422.208 53.936C422.208 53.296 421.888 52.928 420.976 52.704L419.648 52.368C418.304 52.032 417.648 51.328 417.648 50.272C417.648 48.912 418.784 48.048 420.448 48.048C422.08 48.048 423.136 48.944 423.184 50.384H422.112C422.08 49.488 421.456 48.96 420.416 48.96C419.328 48.96 418.72 49.424 418.72 50.256C418.72 50.848 419.136 51.264 419.984 51.472L421.312 51.808C422.656 52.144 423.264 52.768 423.264 53.888C423.264 55.28 422.08 56.192 420.32 56.192C418.576 56.192 417.488 55.264 417.488 53.824Z" fill="black"/>
<circle cx="48" cy="16" r="16" fill="#FF5A5F"/>
<path d="M42.1667 16.8333L45.5001 20.1666L53.8334 11.8333" stroke="white" stroke-width="2" stroke-linecap="round" stroke-linejoin="round"/>
<rect x="64" y="15" width="128" height="2" fill="#FF5A5F"/>
<circle cx="208" cy="16" r="16" fill="#FF5A5F"/>
<path d="M202.167 16.8333L205.5 20.1666L213.833 11.8333" stroke="white" stroke-width="2" stroke-linecap="round" stroke-linejoin="round"/>
<rect x="224" y="15" width="128" height="2" fill="#FF5A5F"/>
<circle cx="368" cy="16" r="15" stroke="#FF5A5F" stroke-width="2"/>
<circle cx="368" cy="16" r="5" fill="#FF5A5F"/>
</svg>
