<svg width="1440" height="1024" viewBox="0 0 1440 1024" fill="none" xmlns="http://www.w3.org/2000/svg">
<rect width="1440" height="1024" fill="white"/>
<g opacity="0.2" clip-path="url(#clip0_439_72950)">
<path d="M764.752 987.641C883.634 868.873 883.634 676.314 764.752 557.547C645.87 438.78 453.125 438.78 334.243 557.547C215.361 676.314 215.361 868.874 334.243 987.641C453.125 1106.41 645.87 1106.41 764.752 987.641Z" fill="#FF8A86"/>
<path d="M1411.57 535.293V545.823H1399.68V832.567H1297.15V593.499H1289.46V589.96H1291.59V581.328H1279.87V574.193H1274.28V549.88H1271.4V581.328H1267.66V589.96H1269.79V593.556H1261.44V604.634H1253.58V520.532H1212.71V832.682H1037.61V789.524H1030.55V779.281H1004.46V789.581H984.96V708.127L969.754 705.883V681.168H965.405V705.221L959.962 704.416V671.213H957.082V664.135H953.568V646.238H940.781V606.59H936.432V646.238H933.12V671.213H930.413V704.847L922.262 708.127V832.682H735.379V826.065H720V775.051H697.478V826.065H693.85V813.52H675.994V728.066H667.987V719.435C668.001 719.291 668.001 719.147 667.987 719.003C667.987 715.694 662.026 708.904 654.682 708.904V669.515H651.6V709.307C650.808 709.502 650.037 709.772 649.296 710.113V694.23H645.638V712.414C643.438 713.978 641.923 716.327 641.405 718.974C641.391 719.118 641.391 719.262 641.405 719.406V728.038H633.37V813.52H621.389V826.065H610.934V773.124H613.814V769.47H610.272L600.941 751.775H601.574V747.804H558.432V751.775H559.066L549.763 769.47H546.192V773.124H549.072V826.065H518.4V832.682H0V1380.19H1440V535.293H1411.57Z" fill="#FF8A86"/>
<path d="M1440 362.505H0V1380.9H1440V362.505Z" fill="url(#paint0_linear_439_72950)"/>
<path d="M1430.87 626.213V589.01H1419.49V571.977H1384.21V589.01H1370.16V532.185H1301.24V663.012H1253.38V632.197H1208.02V552.556H1190.74V537.882H1073.61V552.556H1054.25V765.47H1034.93V742.452H1032.77V584.838L1020.9 579.861L1016.21 580.35V568.611H1007.57L1005.87 498.061H1002.99L1001.29 568.611H992.65V582.824L973.267 584.838V765.47H957.139V802.874H936V777.756H918.72V607.223H903.082V571.977H887.702V607.223H872.352V777.727H839.261V802.874H778.205V829.719H188.64L194.659 827.359V812.973L184.752 808.887L180.374 806.01L180.086 798.702L185.846 798.127V795.249L175.997 793.034L175.133 786.359L172.426 784.863L165.542 777.411L164.822 765.096L166.493 762.708L164.16 755.63L163.642 750.681L167.213 736.295L164.534 707.523L168.134 697.654L171.706 695.266L175.594 691.094L176.803 683.009L180.979 677.255L182.794 670.062L182.621 669.17L184.262 666.983V656.28L173.376 646.094L167.904 652.482L162.806 648.597L158.4 639.477L155.261 636.801L153.763 633.751L148.522 627.795L147.917 621.264L148.522 614.675V608.921L161.395 606.532L146.88 603.943L155.146 599.829L145.901 601.497C145.354 601.095 144.461 600.49 143.366 599.8L147.082 592.837L141.322 596.98C140.953 597.238 140.53 597.406 140.084 597.471C139.639 597.536 139.185 597.496 138.758 597.354C138.122 597.105 137.467 596.903 136.8 596.75C136.391 596.64 136.011 596.441 135.687 596.168C135.363 595.894 135.104 595.553 134.928 595.167L131.069 587.226L131.818 594.65C131.869 595.246 131.733 595.844 131.429 596.36C131.124 596.876 130.666 597.284 130.118 597.527H129.917C129.479 597.71 129.003 597.782 128.531 597.737C128.058 597.692 127.605 597.53 127.21 597.268L120.47 592.837L126.72 599.598C125.984 600.139 125.291 600.736 124.646 601.382L124.186 601.814V602.907L117.014 603.627C114.451 595.685 111.859 587.313 111.571 585.701C110.995 582.537 110.102 570.452 110.102 570.337L105.984 560.727L106.33 559.173L111.658 556.296L111.226 550.829L106.502 548.787V546.485L112.982 532.099L110.102 532.732C109.498 532.732 95.04 536.098 96.1056 544.241L96.768 548.672L91.008 549.247V556.124L94.5792 558.799V570.107L96.9696 574.567V586.392L99.8496 589.845L105.926 614.445C103.248 621.034 100.541 629.119 102.47 631.363C103.367 632.451 104.194 633.595 104.947 634.787L106.33 639.333L108.144 657.287L111.024 660.883L105.667 678.751L109.382 684.505L109.123 704.646L111.168 717.018L109.44 737.273L112.32 758.018L110.592 775.282L105.782 781.669L97.9776 783.309V789.898H92.7936V799.997H98.5536V802.874H92.7936V807.823H84.4128V823.015L90.864 827.388V829.661H0V1380.19H1440V626.357L1430.87 626.213ZM120.758 615.682C119.837 612.805 118.426 608.46 117.014 604.001L124.099 604.921V606.878L118.627 609.007H124.157L124.301 617.178L120.758 615.682Z" fill="#F75B5F"/>
<path d="M1440 826.064H0V1380.19H1440V826.064Z" fill="url(#paint1_linear_439_72950)"/>
<path d="M1440 878.66L1400.98 864.015H1354.9V786.704L1282.72 765.786H1230.48V902.684H1200.5V652.366L1172.76 643.504L1089.59 652.366V1003.39H1056.24V834.178H1030.32V807.132L950.026 786.301V898.714H940.637V872.675H929.117V857.08H919.238V842.493H912.47V834.178H903.082V828.97H827.05V834.178H820.022V544.643L802.138 542.859V523.783H786.24L767.722 416.319V325.946H758.794V408.694L740.304 523.783H723.024V541.449L706.637 544.586V980.398H641.549V882.256H624.269V816.08H613.901V780.403H586.282V793.062H565.546V829.919H542.506V871.351H518.4V980.398H474.682V1036.39H403.344V1020.77H228.096V1036.39H168.826V959.049H0V1380.19H1440V878.66ZM767.837 433.899L772.56 461.376C771.342 459.701 769.716 458.364 767.837 457.492V433.899ZM767.837 479.762C769.411 479.015 770.809 477.945 771.941 476.621C773.072 475.297 773.911 473.75 774.403 472.08L783.331 523.87H767.837V479.762ZM758.909 427.31V456.945C756.866 457.576 755.027 458.738 753.581 460.312L758.909 427.31ZM751.421 473.691C752.131 475.259 753.165 476.66 754.456 477.8C755.746 478.941 757.264 479.796 758.909 480.308V523.783H743.328L751.421 473.691Z" fill="#D53240"/>
<path d="M1435.16 948.231V986.585L1412.99 1041.68H1406.02V1050.32H1396.8V1145.81L1395.82 1145.26H1372.78V1133.75H1351.18V1145.26H1332.46V1123.68H1315.18V1145.26H1303.66V1184.11H1271.98V1211.44H1230.22V1273.44C1158.51 1240.59 1112.14 1180.6 1106.58 1173.29V1157.92L1088.64 1151.28L1083.54 1149.41H1068.68V1152.66H1070.96V1155.3H1071.13L1064.28 1156.97L1059.75 1155.3H1044.89V1158.56H1047.57V1161L1037.32 1163.5V1163.22H1022.4V1166.5H1026.6V1173.72C958.752 1210.66 887.126 1226.06 816.797 1227.61C734.746 1216.7 651.226 1186.84 579.802 1154.41C431.28 1086.88 305.424 995.648 276.48 974.299V964.488L242.87 951.828L233.28 948.231H205.229V954.388H209.578V959.395H209.894L196.934 962.531L188.294 959.395H160.243V965.552H165.312V970.156L145.901 974.874V974.356H117.821V980.514H125.741V993.835C103.162 999.446 61.2864 1009.66 0 1021.77V1033.71C60.2784 1021.83 102.125 1011.73 125.741 1005.89V1182.38L0 1168.94V1191.3L125.741 1204.74V1331.79H111.658V1346.01H0V1380.1H1440V948.231H1435.16ZM174.298 1159.85H145.901V1081.48C145.838 1062.32 152.829 1043.8 165.542 1029.46C166.217 1028.69 167.116 1028.15 168.113 1027.91C169.11 1027.68 170.155 1027.77 171.101 1028.16C172.053 1028.58 172.863 1029.26 173.431 1030.13C173.999 1031 174.3 1032.01 174.298 1033.05V1159.85ZM216.115 1159.85H187.718V1081.48C187.656 1062.32 194.646 1043.8 207.36 1029.46C208.035 1028.69 208.934 1028.15 209.931 1027.91C210.928 1027.68 211.973 1027.77 212.918 1028.16C213.849 1028.59 214.635 1029.28 215.182 1030.15C215.728 1031.02 216.012 1032.03 216 1033.05L216.115 1159.85ZM276.595 988.685C315.014 1016.85 434.995 1101.39 575.28 1165.09C627.044 1189.05 680.734 1208.62 735.782 1223.58C653.155 1213.94 575.28 1188.68 510.941 1161.4C428.341 1125.73 349.782 1081.36 276.595 1029.05V988.685ZM1026.69 1363.13H315.706V1346.09H297.907V1331.88H284.429V1221.83L1026.69 1301.3V1363.13ZM1026.69 1278.85L284.429 1199.38V1184.02L287.798 1155.25H276.48V1043.29C348.455 1094.07 425.503 1137.26 506.39 1172.17C589.565 1207.5 695.146 1239.46 804.73 1239.46C807.61 1239.46 810.49 1239.46 813.37 1239.46C823.968 1240.93 834.336 1242.08 844.531 1242.86C856.512 1243.78 868.214 1244.24 879.638 1244.24C935.395 1244.24 984.557 1233.13 1026.72 1211.15L1026.69 1278.85ZM1026.69 1197.77C986.803 1219.61 942.134 1229.82 895.45 1231.64C941.256 1223.59 985.531 1208.47 1026.69 1186.84V1197.77ZM1052.35 1261.24H1037.35V1219.81C1037.36 1214.07 1038.55 1208.39 1040.86 1203.12C1044.7 1200.76 1048.54 1198.32 1052.38 1195.79L1052.35 1261.24ZM1074.44 1261.24H1059.47V1219.81C1059.42 1209.69 1063.11 1199.91 1069.83 1192.33C1070.18 1191.93 1070.65 1191.65 1071.16 1191.53C1071.68 1191.4 1072.22 1191.44 1072.71 1191.64C1073.21 1191.87 1073.63 1192.24 1073.92 1192.7C1074.22 1193.16 1074.38 1193.69 1074.38 1194.23L1074.44 1261.24ZM1229.96 1363.13H1110.59V1310.27L1230.08 1323.08L1229.96 1363.13ZM1229.96 1300.63L1111.25 1287.92L1112.23 1281.33H1106.32V1191.53C1124.7 1213.25 1168.7 1259.49 1229.96 1286.25V1300.63Z" fill="#A8142A"/>
<path d="M386.698 449.983L388.454 454.874C388.525 455.065 388.636 455.238 388.78 455.383C388.925 455.527 389.098 455.638 389.29 455.708L394.214 457.463C394.479 457.561 394.707 457.738 394.868 457.97C395.029 458.201 395.116 458.476 395.116 458.758C395.116 459.04 395.029 459.315 394.868 459.547C394.707 459.778 394.479 459.955 394.214 460.053L389.29 461.808C389.101 461.883 388.93 461.996 388.786 462.139C388.643 462.283 388.53 462.454 388.454 462.642L386.698 467.562C386.607 467.83 386.434 468.062 386.204 468.227C385.974 468.391 385.699 468.48 385.416 468.48C385.133 468.48 384.858 468.391 384.628 468.227C384.398 468.062 384.225 467.83 384.134 467.562L382.349 462.642C382.278 462.451 382.167 462.278 382.023 462.134C381.879 461.99 381.705 461.878 381.514 461.808L376.618 460.053C376.353 459.955 376.125 459.778 375.964 459.547C375.803 459.315 375.716 459.04 375.716 458.758C375.716 458.476 375.803 458.201 375.964 457.97C376.125 457.738 376.353 457.561 376.618 457.463L381.514 455.708C381.708 455.643 381.885 455.534 382.029 455.389C382.174 455.244 382.284 455.068 382.349 454.874L384.134 449.983C384.225 449.715 384.398 449.483 384.628 449.318C384.858 449.154 385.133 449.065 385.416 449.065C385.699 449.065 385.974 449.154 386.204 449.318C386.434 449.483 386.607 449.715 386.698 449.983Z" fill="#FF8A86"/>
<path d="M639.36 397.186L641.117 402.106C641.184 402.296 641.294 402.467 641.439 402.607C641.584 402.747 641.759 402.851 641.952 402.911L646.848 404.695C647.116 404.786 647.348 404.958 647.513 405.188C647.677 405.418 647.766 405.693 647.766 405.976C647.766 406.258 647.677 406.533 647.513 406.763C647.348 406.993 647.116 407.165 646.848 407.256L641.952 409.04C641.759 409.1 641.584 409.204 641.439 409.344C641.294 409.484 641.184 409.655 641.117 409.845L639.36 414.737C639.262 415.001 639.085 415.229 638.853 415.39C638.621 415.551 638.346 415.637 638.064 415.637C637.782 415.637 637.506 415.551 637.275 415.39C637.043 415.229 636.866 415.001 636.768 414.737L635.011 409.817C634.94 409.629 634.829 409.459 634.684 409.32C634.54 409.18 634.366 409.075 634.176 409.011L629.251 407.227C628.983 407.136 628.751 406.964 628.586 406.734C628.422 406.505 628.333 406.229 628.333 405.947C628.333 405.664 628.422 405.389 628.586 405.159C628.751 404.93 628.983 404.757 629.251 404.666L634.176 402.883C634.366 402.819 634.54 402.713 634.684 402.574C634.829 402.434 634.94 402.265 635.011 402.077L636.768 397.157C636.869 396.894 637.048 396.668 637.282 396.509C637.515 396.351 637.792 396.267 638.074 396.271C638.356 396.274 638.631 396.363 638.86 396.527C639.09 396.69 639.265 396.92 639.36 397.186Z" fill="#FF8A86"/>
<path d="M1084.95 416.549L1086.74 421.47C1086.8 421.655 1086.91 421.824 1087.05 421.963C1087.19 422.103 1087.36 422.209 1087.55 422.275L1092.47 424.059C1092.74 424.15 1092.97 424.322 1093.13 424.552C1093.3 424.782 1093.39 425.057 1093.39 425.339C1093.39 425.622 1093.3 425.897 1093.13 426.127C1092.97 426.356 1092.74 426.529 1092.47 426.62L1087.55 428.404C1087.36 428.469 1087.19 428.576 1087.05 428.715C1086.91 428.855 1086.8 429.023 1086.74 429.209L1084.95 434.129C1084.86 434.397 1084.69 434.629 1084.46 434.793C1084.23 434.958 1083.95 435.046 1083.67 435.046C1083.39 435.046 1083.11 434.958 1082.88 434.793C1082.65 434.629 1082.48 434.397 1082.39 434.129L1080.6 429.209C1080.54 429.02 1080.44 428.848 1080.3 428.708C1080.16 428.568 1079.99 428.463 1079.8 428.404L1074.87 426.62C1074.61 426.529 1074.37 426.356 1074.21 426.127C1074.04 425.897 1073.96 425.622 1073.96 425.339C1073.96 425.057 1074.04 424.782 1074.21 424.552C1074.37 424.322 1074.61 424.15 1074.87 424.059L1079.8 422.275C1079.99 422.215 1080.16 422.111 1080.3 421.971C1080.44 421.83 1080.54 421.659 1080.6 421.47L1082.39 416.549C1082.48 416.282 1082.65 416.05 1082.88 415.885C1083.11 415.721 1083.39 415.632 1083.67 415.632C1083.95 415.632 1084.23 415.721 1084.46 415.885C1084.69 416.05 1084.86 416.282 1084.95 416.549Z" fill="#FF8A86"/>
<path d="M1330.04 440.344L1331.8 445.235C1331.86 445.429 1331.97 445.606 1332.12 445.751C1332.26 445.895 1332.44 446.005 1332.63 446.07L1337.53 447.825C1337.79 447.923 1338.02 448.1 1338.18 448.331C1338.34 448.562 1338.43 448.838 1338.43 449.12C1338.43 449.402 1338.34 449.677 1338.18 449.908C1338.02 450.14 1337.79 450.316 1337.53 450.414L1332.63 452.169C1332.44 452.24 1332.27 452.351 1332.12 452.495C1331.98 452.639 1331.87 452.813 1331.8 453.004L1330.04 457.924C1329.94 458.188 1329.77 458.416 1329.53 458.577C1329.3 458.738 1329.03 458.824 1328.75 458.824C1328.46 458.824 1328.19 458.738 1327.96 458.577C1327.72 458.416 1327.55 458.188 1327.45 457.924L1325.69 453.004C1325.62 452.815 1325.5 452.644 1325.36 452.501C1325.22 452.357 1325.05 452.245 1324.86 452.169L1319.93 450.414C1319.67 450.316 1319.44 450.14 1319.28 449.908C1319.12 449.677 1319.03 449.402 1319.03 449.12C1319.03 448.838 1319.12 448.562 1319.28 448.331C1319.44 448.1 1319.67 447.923 1319.93 447.825L1324.8 446.098C1324.99 446.028 1325.16 445.917 1325.31 445.773C1325.45 445.629 1325.56 445.455 1325.64 445.264L1327.39 440.373C1327.47 440.087 1327.65 439.835 1327.88 439.654C1328.12 439.474 1328.41 439.375 1328.71 439.372C1329 439.368 1329.29 439.461 1329.54 439.637C1329.78 439.812 1329.95 440.06 1330.04 440.344Z" fill="#FF8A86"/>
<path d="M401.501 343.295L403.2 348.273C403.275 348.461 403.388 348.633 403.532 348.776C403.675 348.919 403.847 349.032 404.035 349.107L408.96 350.863C409.225 350.961 409.453 351.137 409.614 351.369C409.775 351.6 409.861 351.875 409.861 352.157C409.861 352.439 409.775 352.714 409.614 352.946C409.453 353.177 409.225 353.354 408.96 353.452L404.035 355.207C403.844 355.278 403.67 355.389 403.526 355.533C403.382 355.677 403.271 355.85 403.2 356.042L401.443 360.933C401.352 361.2 401.18 361.433 400.95 361.597C400.72 361.762 400.444 361.85 400.162 361.85C399.879 361.85 399.603 361.762 399.373 361.597C399.144 361.433 398.971 361.2 398.88 360.933L397.094 356.042C397.029 355.847 396.92 355.671 396.775 355.526C396.63 355.381 396.454 355.272 396.259 355.207L391.363 353.452C391.099 353.354 390.871 353.177 390.709 352.946C390.548 352.714 390.462 352.439 390.462 352.157C390.462 351.875 390.548 351.6 390.709 351.369C390.871 351.137 391.099 350.961 391.363 350.863L396.259 349.107C396.451 349.037 396.624 348.926 396.768 348.782C396.913 348.638 397.024 348.464 397.094 348.273L398.88 343.353C398.949 343.061 399.112 342.8 399.346 342.611C399.579 342.423 399.868 342.316 400.168 342.31C400.468 342.303 400.762 342.397 401.003 342.575C401.245 342.753 401.42 343.007 401.501 343.295Z" fill="#FF8A86"/>
<path d="M210.73 511.756L212.487 516.676C212.562 516.861 212.676 517.028 212.819 517.167C212.963 517.306 213.134 517.413 213.322 517.482L218.247 519.266C218.514 519.357 218.747 519.529 218.912 519.759C219.076 519.989 219.165 520.264 219.165 520.546C219.165 520.829 219.076 521.104 218.912 521.334C218.747 521.563 218.514 521.736 218.247 521.827L213.322 523.611C213.132 523.675 212.958 523.78 212.814 523.919C212.669 524.059 212.557 524.228 212.487 524.416L210.73 529.336C210.632 529.601 210.455 529.829 210.223 529.989C209.992 530.15 209.716 530.237 209.434 530.237C209.152 530.237 208.876 530.15 208.645 529.989C208.413 529.829 208.236 529.601 208.138 529.336L206.381 524.416C206.314 524.226 206.204 524.055 206.059 523.915C205.914 523.775 205.738 523.671 205.546 523.611L200.65 521.827C200.382 521.736 200.15 521.563 199.985 521.334C199.82 521.104 199.732 520.829 199.732 520.546C199.732 520.264 199.82 519.989 199.985 519.759C200.15 519.529 200.382 519.357 200.65 519.266L205.546 517.482C205.736 517.418 205.91 517.313 206.054 517.173C206.199 517.034 206.31 516.864 206.381 516.676L208.138 511.756C208.236 511.492 208.413 511.264 208.645 511.103C208.876 510.942 209.152 510.856 209.434 510.856C209.716 510.856 209.992 510.942 210.223 511.103C210.455 511.264 210.632 511.492 210.73 511.756Z" fill="#FF8A86"/>
<path d="M902.188 440.344L903.945 445.236C904.016 445.427 904.127 445.6 904.271 445.744C904.415 445.888 904.589 445.999 904.78 446.07L909.705 447.825C909.97 447.923 910.198 448.1 910.359 448.331C910.52 448.563 910.607 448.838 910.607 449.12C910.607 449.402 910.52 449.677 910.359 449.908C910.198 450.14 909.97 450.316 909.705 450.415L904.78 452.17C904.592 452.245 904.421 452.358 904.277 452.501C904.133 452.645 904.021 452.816 903.945 453.004L902.188 457.924C902.09 458.188 901.913 458.416 901.682 458.577C901.45 458.738 901.175 458.825 900.892 458.825C900.61 458.825 900.335 458.738 900.103 458.577C899.871 458.416 899.695 458.188 899.596 457.924L897.84 453.004C897.769 452.813 897.658 452.639 897.514 452.495C897.369 452.351 897.196 452.24 897.004 452.17L892.108 450.415C891.844 450.316 891.616 450.14 891.455 449.908C891.293 449.677 891.207 449.402 891.207 449.12C891.207 448.838 891.293 448.563 891.455 448.331C891.616 448.1 891.844 447.923 892.108 447.825L897.004 446.07C897.199 446.005 897.375 445.896 897.52 445.751C897.665 445.606 897.774 445.43 897.84 445.236L899.596 440.344C899.695 440.08 899.871 439.852 900.103 439.691C900.335 439.53 900.61 439.444 900.892 439.444C901.175 439.444 901.45 439.53 901.682 439.691C901.913 439.852 902.09 440.08 902.188 440.344Z" fill="#FF8A86"/>
<path d="M303.609 493.055L304.617 495.932C304.652 496.039 304.712 496.137 304.792 496.217C304.873 496.297 304.97 496.357 305.078 496.392L307.958 497.399C308.11 497.452 308.243 497.551 308.336 497.683C308.43 497.814 308.48 497.972 308.48 498.133C308.48 498.294 308.43 498.452 308.336 498.583C308.243 498.715 308.11 498.814 307.958 498.867L305.078 499.874C304.97 499.909 304.873 499.969 304.792 500.049C304.712 500.129 304.652 500.227 304.617 500.334L303.609 503.211C303.564 503.368 303.47 503.505 303.34 503.603C303.21 503.701 303.052 503.754 302.889 503.754C302.726 503.754 302.568 503.701 302.438 503.603C302.308 503.505 302.214 503.368 302.169 503.211L301.161 500.334C301.126 500.227 301.066 500.129 300.986 500.049C300.906 499.969 300.808 499.909 300.7 499.874L297.82 498.867C297.668 498.814 297.536 498.715 297.442 498.583C297.349 498.452 297.298 498.294 297.298 498.133C297.298 497.972 297.349 497.814 297.442 497.683C297.536 497.551 297.668 497.452 297.82 497.399L300.7 496.392C300.808 496.357 300.906 496.297 300.986 496.217C301.066 496.137 301.126 496.039 301.161 495.932L302.169 493.055C302.228 492.912 302.327 492.789 302.455 492.703C302.584 492.617 302.735 492.571 302.889 492.571C303.044 492.571 303.195 492.617 303.323 492.703C303.451 492.789 303.551 492.912 303.609 493.055Z" fill="#FF8A86"/>
<path d="M968.659 493.055L969.667 495.932C969.703 496.039 969.763 496.137 969.843 496.217C969.923 496.297 970.021 496.357 970.128 496.392L973.008 497.399C973.161 497.452 973.293 497.551 973.386 497.683C973.48 497.814 973.53 497.972 973.53 498.133C973.53 498.294 973.48 498.452 973.386 498.583C973.293 498.715 973.161 498.814 973.008 498.867L970.128 499.874C970.021 499.909 969.923 499.969 969.843 500.049C969.763 500.129 969.703 500.227 969.667 500.334L968.659 503.211C968.615 503.368 968.52 503.505 968.39 503.603C968.261 503.701 968.102 503.754 967.939 503.754C967.777 503.754 967.618 503.701 967.488 503.603C967.359 503.505 967.264 503.368 967.219 503.211L966.211 500.334C966.173 500.223 966.109 500.124 966.024 500.043C965.938 499.963 965.835 499.905 965.722 499.874L962.842 498.867C962.689 498.814 962.557 498.715 962.464 498.583C962.37 498.452 962.32 498.294 962.32 498.133C962.32 497.972 962.37 497.814 962.464 497.683C962.557 497.551 962.689 497.452 962.842 497.399L965.722 496.392C965.835 496.361 965.938 496.303 966.024 496.223C966.109 496.142 966.173 496.043 966.211 495.932L967.219 493.055C967.278 492.912 967.377 492.789 967.506 492.703C967.634 492.617 967.785 492.571 967.939 492.571C968.094 492.571 968.245 492.617 968.373 492.703C968.501 492.789 968.601 492.912 968.659 493.055Z" fill="#FF8A86"/>
<path d="M1314.26 337.109L1315.27 339.986C1315.36 340.192 1315.52 340.357 1315.73 340.447L1318.61 341.454C1318.76 341.507 1318.89 341.606 1318.99 341.737C1319.08 341.869 1319.13 342.026 1319.13 342.187C1319.13 342.349 1319.08 342.506 1318.99 342.638C1318.89 342.769 1318.76 342.868 1318.61 342.921L1315.73 343.899C1315.62 343.946 1315.53 344.013 1315.45 344.097C1315.37 344.181 1315.31 344.28 1315.27 344.389L1314.26 347.266C1314.21 347.418 1314.11 347.55 1313.98 347.644C1313.84 347.737 1313.69 347.787 1313.53 347.787C1313.36 347.787 1313.21 347.737 1313.07 347.644C1312.94 347.55 1312.84 347.418 1312.79 347.266L1311.81 344.389C1311.77 344.277 1311.7 344.175 1311.62 344.091C1311.54 344.007 1311.43 343.941 1311.32 343.899L1308.44 342.921C1308.29 342.868 1308.16 342.769 1308.06 342.638C1307.97 342.506 1307.92 342.349 1307.92 342.187C1307.92 342.026 1307.97 341.869 1308.06 341.737C1308.16 341.606 1308.29 341.507 1308.44 341.454L1311.32 340.447C1311.43 340.407 1311.53 340.345 1311.61 340.266C1311.7 340.187 1311.76 340.092 1311.81 339.986L1312.79 337.109C1312.84 336.957 1312.94 336.825 1313.07 336.731C1313.21 336.638 1313.36 336.588 1313.53 336.588C1313.69 336.588 1313.84 336.638 1313.98 336.731C1314.11 336.825 1314.21 336.957 1314.26 337.109Z" fill="#FF8A86"/>
<path d="M979.661 302.238L980.669 305.115C980.759 305.321 980.924 305.485 981.13 305.575L984.01 306.582C984.162 306.635 984.294 306.734 984.388 306.866C984.481 306.997 984.532 307.155 984.532 307.316C984.532 307.477 984.481 307.635 984.388 307.766C984.294 307.898 984.162 307.997 984.01 308.05L981.13 309.028C981.024 309.075 980.929 309.142 980.85 309.226C980.771 309.31 980.709 309.409 980.669 309.517L979.661 312.394C979.616 312.551 979.522 312.688 979.392 312.786C979.262 312.884 979.104 312.937 978.941 312.937C978.778 312.937 978.62 312.884 978.49 312.786C978.36 312.688 978.266 312.551 978.221 312.394L977.213 309.517C977.173 309.409 977.111 309.31 977.032 309.226C976.953 309.142 976.858 309.075 976.752 309.028L973.872 308.05C973.72 307.997 973.587 307.898 973.494 307.766C973.4 307.635 973.35 307.477 973.35 307.316C973.35 307.155 973.4 306.997 973.494 306.866C973.587 306.734 973.72 306.635 973.872 306.582L976.752 305.575C976.958 305.485 977.123 305.321 977.213 305.115L978.221 302.238C978.266 302.081 978.36 301.944 978.49 301.846C978.62 301.748 978.778 301.695 978.941 301.695C979.104 301.695 979.262 301.748 979.392 301.846C979.522 301.944 979.616 302.081 979.661 302.238Z" fill="#FF8A86"/>
<path d="M147.225 272.401L148.205 275.278C148.243 275.389 148.307 275.489 148.392 275.569C148.478 275.649 148.581 275.707 148.694 275.738L151.574 276.746C151.727 276.799 151.859 276.898 151.952 277.029C152.046 277.161 152.096 277.318 152.096 277.479C152.096 277.641 152.046 277.798 151.952 277.929C151.859 278.061 151.727 278.16 151.574 278.213L148.694 279.22C148.581 279.251 148.478 279.309 148.392 279.39C148.307 279.47 148.243 279.57 148.205 279.68L147.225 282.558C147.172 282.71 147.073 282.842 146.941 282.935C146.81 283.029 146.652 283.079 146.491 283.079C146.33 283.079 146.172 283.029 146.04 282.935C145.909 282.842 145.81 282.71 145.757 282.558L144.749 279.68C144.713 279.573 144.653 279.475 144.573 279.395C144.493 279.315 144.395 279.255 144.288 279.22L141.408 278.213C141.255 278.16 141.123 278.061 141.03 277.929C140.936 277.798 140.886 277.641 140.886 277.479C140.886 277.318 140.936 277.161 141.03 277.029C141.123 276.898 141.255 276.799 141.408 276.746L144.288 275.738C144.395 275.703 144.493 275.643 144.573 275.563C144.653 275.483 144.713 275.386 144.749 275.278L145.757 272.401C145.81 272.249 145.909 272.117 146.04 272.023C146.172 271.93 146.33 271.879 146.491 271.879C146.652 271.879 146.81 271.93 146.941 272.023C147.073 272.117 147.172 272.249 147.225 272.401Z" fill="#FF8A86"/>
<path d="M1178.12 469.116L1179.1 471.994C1179.14 472.104 1179.2 472.204 1179.29 472.284C1179.37 472.365 1179.48 472.423 1179.59 472.454L1182.47 473.461C1182.62 473.514 1182.76 473.613 1182.85 473.745C1182.94 473.876 1182.99 474.033 1182.99 474.195C1182.99 474.356 1182.94 474.513 1182.85 474.645C1182.76 474.776 1182.62 474.875 1182.47 474.928L1179.59 475.936C1179.48 475.967 1179.37 476.025 1179.29 476.105C1179.2 476.185 1179.14 476.285 1179.1 476.396L1178.12 479.273C1178.07 479.425 1177.97 479.557 1177.84 479.651C1177.71 479.744 1177.55 479.795 1177.39 479.795C1177.23 479.795 1177.07 479.744 1176.94 479.651C1176.81 479.557 1176.71 479.425 1176.65 479.273L1175.65 476.396C1175.61 476.288 1175.55 476.191 1175.47 476.111C1175.39 476.031 1175.29 475.971 1175.18 475.936L1172.3 474.928C1172.15 474.875 1172.02 474.776 1171.93 474.645C1171.83 474.513 1171.78 474.356 1171.78 474.195C1171.78 474.033 1171.83 473.876 1171.93 473.745C1172.02 473.613 1172.15 473.514 1172.3 473.461L1175.18 472.454C1175.29 472.419 1175.39 472.359 1175.47 472.279C1175.55 472.199 1175.61 472.101 1175.65 471.994L1176.65 469.116C1176.71 468.964 1176.81 468.832 1176.94 468.739C1177.07 468.645 1177.23 468.595 1177.39 468.595C1177.55 468.595 1177.71 468.645 1177.84 468.739C1177.97 468.832 1178.07 468.964 1178.12 469.116Z" fill="#FF8A86"/>
<path d="M1167.09 296.655L1168.1 299.533C1168.15 299.638 1168.21 299.733 1168.3 299.812C1168.38 299.891 1168.48 299.953 1168.59 299.993L1171.47 301C1171.63 301.045 1171.76 301.139 1171.86 301.269C1171.96 301.399 1172.01 301.557 1172.01 301.719C1172.01 301.882 1171.96 302.04 1171.86 302.17C1171.76 302.3 1171.63 302.394 1171.47 302.439L1168.59 303.446C1168.48 303.487 1168.38 303.553 1168.29 303.637C1168.21 303.722 1168.14 303.823 1168.1 303.935L1167.09 306.812C1167.05 306.968 1166.95 307.106 1166.82 307.204C1166.69 307.302 1166.53 307.355 1166.37 307.355C1166.21 307.355 1166.05 307.302 1165.92 307.204C1165.79 307.106 1165.7 306.968 1165.65 306.812L1164.64 303.935C1164.6 303.827 1164.54 303.728 1164.46 303.644C1164.38 303.56 1164.29 303.492 1164.18 303.446L1161.3 302.439C1161.15 302.394 1161.01 302.3 1160.91 302.17C1160.81 302.04 1160.76 301.882 1160.76 301.719C1160.76 301.557 1160.81 301.399 1160.91 301.269C1161.01 301.139 1161.15 301.045 1161.3 301L1164.18 299.993C1164.39 299.903 1164.55 299.739 1164.64 299.533L1165.65 296.655C1165.7 296.499 1165.79 296.362 1165.92 296.264C1166.05 296.166 1166.21 296.113 1166.37 296.113C1166.53 296.113 1166.69 296.166 1166.82 296.264C1166.95 296.362 1167.05 296.499 1167.09 296.655Z" fill="#FF8A86"/>
<path d="M64.8864 698.201L65.8944 701.078C65.9845 701.284 66.1491 701.448 66.3552 701.538L69.2352 702.545C69.3917 702.59 69.5293 702.684 69.6273 702.814C69.7253 702.944 69.7784 703.102 69.7784 703.265C69.7784 703.427 69.7253 703.585 69.6273 703.715C69.5293 703.845 69.3917 703.939 69.2352 703.984L66.24 705.049C66.0338 705.138 65.8693 705.303 65.7792 705.509L64.7712 708.386C64.7182 708.538 64.6189 708.67 64.4873 708.764C64.3557 708.857 64.1983 708.908 64.0368 708.908C63.8754 708.908 63.7179 708.857 63.5863 708.764C63.4547 708.67 63.3555 708.538 63.3024 708.386L62.3232 705.509C62.2765 705.403 62.2092 705.308 62.1251 705.229C62.041 705.15 61.9419 705.089 61.8336 705.049L58.9536 704.041C58.8106 703.983 58.6881 703.884 58.6019 703.756C58.5158 703.627 58.4697 703.477 58.4697 703.322C58.4697 703.168 58.5158 703.017 58.6019 702.889C58.6881 702.761 58.8106 702.661 58.9536 702.603L61.8336 701.596C61.9419 701.556 62.041 701.494 62.1251 701.415C62.2092 701.336 62.2765 701.241 62.3232 701.136L63.3024 698.258C63.2948 698.048 63.3709 697.844 63.514 697.69C63.6572 697.537 63.8556 697.446 64.0656 697.438C64.2757 697.431 64.4802 697.507 64.6341 697.65C64.788 697.793 64.8788 697.991 64.8864 698.201Z" fill="#FF8A86"/>
<path d="M258.71 400.955L259.718 403.832C259.753 403.939 259.813 404.037 259.894 404.117C259.974 404.197 260.071 404.257 260.179 404.292L263.059 405.299C263.212 405.352 263.344 405.451 263.437 405.583C263.531 405.714 263.581 405.872 263.581 406.033C263.581 406.194 263.531 406.352 263.437 406.483C263.344 406.614 263.212 406.714 263.059 406.767L260.179 407.774C260.071 407.809 259.974 407.869 259.894 407.949C259.813 408.029 259.753 408.126 259.718 408.234L258.71 411.111C258.657 411.264 258.558 411.396 258.426 411.489C258.295 411.583 258.137 411.633 257.976 411.633C257.814 411.633 257.657 411.583 257.525 411.489C257.394 411.396 257.295 411.264 257.241 411.111L256.233 408.234C256.206 408.123 256.148 408.021 256.067 407.94C255.986 407.859 255.884 407.801 255.773 407.774L252.893 406.767C252.74 406.714 252.608 406.614 252.514 406.483C252.421 406.352 252.371 406.194 252.371 406.033C252.371 405.872 252.421 405.714 252.514 405.583C252.608 405.451 252.74 405.352 252.893 405.299L255.773 404.292C255.884 404.264 255.986 404.207 256.067 404.126C256.148 404.045 256.206 403.943 256.233 403.832L257.241 400.955C257.295 400.802 257.394 400.67 257.525 400.577C257.657 400.483 257.814 400.433 257.976 400.433C258.137 400.433 258.295 400.483 258.426 400.577C258.558 400.67 258.657 400.802 258.71 400.955Z" fill="#FF8A86"/>
<path d="M64.8865 463.362L65.8945 466.239C65.9846 466.445 66.1491 466.609 66.3553 466.699L69.2353 467.706C69.3878 467.759 69.52 467.859 69.6135 467.99C69.7071 468.122 69.7573 468.279 69.7573 468.44C69.7573 468.601 69.7071 468.759 69.6135 468.89C69.52 469.022 69.3878 469.121 69.2353 469.174L66.3553 470.152C66.2497 470.199 66.1545 470.266 66.0753 470.35C65.9962 470.434 65.9347 470.533 65.8945 470.641L64.8865 473.518C64.8334 473.671 64.7342 473.803 64.6026 473.896C64.471 473.99 64.3136 474.04 64.1521 474.04C63.9906 474.04 63.8332 473.99 63.7016 473.896C63.57 473.803 63.4708 473.671 63.4177 473.518L62.4385 470.641C62.3966 470.529 62.3313 470.428 62.2468 470.344C62.1624 470.259 62.0608 470.194 61.9489 470.152L59.0689 469.174C58.9164 469.121 58.7842 469.022 58.6907 468.89C58.5971 468.759 58.5469 468.601 58.5469 468.44C58.5469 468.279 58.5971 468.122 58.6907 467.99C58.7842 467.859 58.9164 467.759 59.0689 467.706L61.9489 466.699C62.0572 466.659 62.1563 466.598 62.2404 466.519C62.3245 466.44 62.3918 466.345 62.4385 466.239L63.4177 463.362C63.4708 463.21 63.57 463.077 63.7016 462.984C63.8332 462.891 63.9906 462.84 64.1521 462.84C64.3136 462.84 64.471 462.891 64.6026 462.984C64.7342 463.077 64.8334 463.21 64.8865 463.362Z" fill="#FF8A86"/>
</g>
<defs>
<linearGradient id="paint0_linear_439_72950" x1="720" y1="944.077" x2="720" y2="107.324" gradientUnits="userSpaceOnUse">
<stop stop-color="white"/>
<stop offset="0.01" stop-color="white" stop-opacity="0.96"/>
<stop offset="0.05" stop-color="white" stop-opacity="0.78"/>
<stop offset="0.09" stop-color="white" stop-opacity="0.61"/>
<stop offset="0.14" stop-color="white" stop-opacity="0.47"/>
<stop offset="0.2" stop-color="white" stop-opacity="0.34"/>
<stop offset="0.25" stop-color="white" stop-opacity="0.23"/>
<stop offset="0.32" stop-color="white" stop-opacity="0.15"/>
<stop offset="0.4" stop-color="white" stop-opacity="0.08"/>
<stop offset="0.49" stop-color="white" stop-opacity="0.03"/>
<stop offset="0.63" stop-color="white" stop-opacity="0.01"/>
<stop offset="1" stop-color="white" stop-opacity="0"/>
</linearGradient>
<linearGradient id="paint1_linear_439_72950" x1="720" y1="1168.94" x2="720" y2="713.651" gradientUnits="userSpaceOnUse">
<stop stop-color="white"/>
<stop offset="0.01" stop-color="white" stop-opacity="0.96"/>
<stop offset="0.05" stop-color="white" stop-opacity="0.78"/>
<stop offset="0.09" stop-color="white" stop-opacity="0.61"/>
<stop offset="0.14" stop-color="white" stop-opacity="0.47"/>
<stop offset="0.2" stop-color="white" stop-opacity="0.34"/>
<stop offset="0.25" stop-color="white" stop-opacity="0.23"/>
<stop offset="0.32" stop-color="white" stop-opacity="0.15"/>
<stop offset="0.4" stop-color="white" stop-opacity="0.08"/>
<stop offset="0.49" stop-color="white" stop-opacity="0.03"/>
<stop offset="0.63" stop-color="white" stop-opacity="0.01"/>
<stop offset="1" stop-color="white" stop-opacity="0"/>
</linearGradient>
<clipPath id="clip0_439_72950">
<rect width="1440" height="845" fill="white" transform="translate(0 179)"/>
</clipPath>
</defs>
</svg>
